<svg id="დიეტ" xmlns="http://www.w3.org/2000/svg" width="28.358" height="26.299" viewBox="0 0 28.358 26.299">
  <g id="Group_2495" data-name="Group 2495" transform="translate(0 0)">
    <g id="Group_2494" data-name="Group 2494" transform="translate(0 0)">
      <path id="Path_6502" data-name="Path 6502" d="M28.185,29.724A.554.554,0,0,0,28,29.4a3.492,3.492,0,0,1-1.2-2.319l-.016-.09a.554.554,0,0,0-.468-.449,1.849,1.849,0,0,0-.256-.017,2.545,2.545,0,0,0-1.741.718.554.554,0,0,0-.147.308c-.04.3-.06.57-.078.81-.068.906-.128,1-.4,1.089a.554.554,0,0,0-.362.364,12.8,12.8,0,0,1-1.022,2.392c-.206-.393-.434-.747-.646-1.077a3.132,3.132,0,0,1-.788-2.23c.453-2.556.223-4.481-.684-5.722a3.643,3.643,0,0,0-2.1-1.383,2.441,2.441,0,0,1,1.641-2.115.554.554,0,0,0-.287-1.07,3.546,3.546,0,0,0-2.452,3.046,3.675,3.675,0,0,0-2.347.8c-1.207.965-1.937,2.757-2.168,5.327-.07.773-.57,1.225-1.263,1.849a8.024,8.024,0,0,0-1.7,1.939,6.861,6.861,0,0,0-2.006-.482,2.429,2.429,0,0,1,1.63-2.037.554.554,0,0,0-.287-1.07,2.957,2.957,0,0,0-.832.376,3.275,3.275,0,0,0-4.055-2.515.554.554,0,0,0-.392.392A3.287,3.287,0,0,0,4.419,29.4a3.251,3.251,0,0,0,2.125.953,4.151,4.151,0,0,0-.152.732,6.915,6.915,0,0,0,.523,13.81,6.849,6.849,0,0,0,3.922-1.22c.182.08.365.157.548.229a13.626,13.626,0,0,0,5.007.991,11.152,11.152,0,0,0,7.147-2.516,14.044,14.044,0,0,0,4.484-7.362A14.38,14.38,0,0,0,28.185,29.724Zm-16.229.728a3.9,3.9,0,0,0,1.624-2.573c.2-2.258.794-3.793,1.756-4.561a2.668,2.668,0,0,1,2.1-.523A2.629,2.629,0,0,1,19.3,23.832c.722.988.886,2.628.488,4.875a4.1,4.1,0,0,0,.947,3.023,8.486,8.486,0,0,1,.875,1.609,13.285,13.285,0,0,1-7.816,5.381,6.914,6.914,0,0,0-3.283-6.652A7.193,7.193,0,0,1,11.956,30.452ZM5.2,28.612a2.176,2.176,0,0,1-.622-1.763,2.195,2.195,0,0,1,.231-.012,2.153,2.153,0,0,1,1.532.635,2.176,2.176,0,0,1,.622,1.763,2.193,2.193,0,0,1-.231.012h0A2.152,2.152,0,0,1,5.2,28.612Zm1.712,15.17a5.8,5.8,0,1,1,5.729-4.856q-.534.069-1.075.087a4.755,4.755,0,0,0-.241-2.849.554.554,0,1,0-1.025.42A3.658,3.658,0,0,1,10.431,39a12.178,12.178,0,0,1-2.369-.392.554.554,0,0,0-.464.083,3.177,3.177,0,0,0-1.283,1.632.554.554,0,0,0,.167.607A18.718,18.718,0,0,0,9.657,43.1,5.755,5.755,0,0,1,6.915,43.783Zm20.038-9.057c-1.52,5.671-5.468,9.057-10.561,9.057a14.452,14.452,0,0,1-8.878-3.441,1.972,1.972,0,0,1,.523-.6,13.149,13.149,0,0,0,3.148.387A13.374,13.374,0,0,0,19.474,37.2a14.756,14.756,0,0,0,3.19-3.45c.01-.014.02-.028.029-.043A14.131,14.131,0,0,0,24.308,30.4c.776-.391.835-1.182.893-1.949.013-.175.027-.355.047-.545a1.5,1.5,0,0,1,.538-.235,4.341,4.341,0,0,0,1.342,2.443A13.4,13.4,0,0,1,26.953,34.726Z" transform="translate(0 -18.592)" fill="#061745"/>
    </g>
  </g>
  <g id="Group_2497" data-name="Group 2497" transform="translate(17.094 5.3)">
    <g id="Group_2496" data-name="Group 2496" transform="translate(0 0)">
      <path id="Path_6503" data-name="Path 6503" d="M309.4,114.333a.554.554,0,0,0-.428,1.022c.4.169.625,1.385.271,3.382a.554.554,0,1,0,1.091.194C310.651,117.145,310.746,114.9,309.4,114.333Z" transform="translate(-308.632 -114.29)" fill="#061745"/>
    </g>
  </g>
  <g id="Group_2499" data-name="Group 2499" transform="translate(20.519 20.975)">
    <g id="Group_2498" data-name="Group 2498" transform="translate(0 0)">
      <path id="Path_6504" data-name="Path 6504" d="M371.466,397.517a.554.554,0,0,0-.776-.11l0,0a.554.554,0,0,0,.656.893l.013-.009A.553.553,0,0,0,371.466,397.517Z" transform="translate(-370.462 -397.295)" fill="#061745"/>
    </g>
  </g>
  <g id="Group_2501" data-name="Group 2501" transform="translate(15.414 21.791)">
    <g id="Group_2500" data-name="Group 2500">
      <path id="Path_6505" data-name="Path 6505" d="M283.138,412.316a.554.554,0,0,0-.745-.241,8,8,0,0,1-3.519.93.554.554,0,0,0-.042,1.107h.088a9.155,9.155,0,0,0,3.977-1.052A.554.554,0,0,0,283.138,412.316Z" transform="translate(-278.3 -412.015)" fill="#061745"/>
    </g>
  </g>
  <g id="Group_2503" data-name="Group 2503" transform="translate(9.342 15.849)">
    <g id="Group_2502" data-name="Group 2502">
      <path id="Path_6506" data-name="Path 6506" d="M169.624,304.923l-.018-.018a.554.554,0,0,0-.781.785l.012.012a.554.554,0,0,0,.788-.779Z" transform="translate(-168.661 -304.744)" fill="#061745"/>
    </g>
  </g>
</svg>
