<svg id="sleep" xmlns="http://www.w3.org/2000/svg" width="32.534" height="27.636" viewBox="0 0 32.534 27.636">
  <path id="Path_6468" data-name="Path 6468" d="M30.143,200.322v-5.368a2.1,2.1,0,0,0-2.1-2.1H9.383a.478.478,0,1,0,0,.956H28.045a1.143,1.143,0,0,1,1.142,1.142v5.351H27.042v-1.095a2.086,2.086,0,0,0-2.084-2.084H19.93a2.086,2.086,0,0,0-2.084,2.084v1.095H14.687v-1.095a2.086,2.086,0,0,0-2.084-2.084H7.575a2.086,2.086,0,0,0-2.084,2.084v1.095H3.347v-5.351a1.143,1.143,0,0,1,1.142-1.142H7.471a.478.478,0,1,0,0-.956H4.489a2.1,2.1,0,0,0-2.1,2.1v5.368A2.691,2.691,0,0,0,0,202.993v7.184a.478.478,0,0,0,.478.478H7.471a.478.478,0,1,0,0-.956H.956v-4.981H25.369a.478.478,0,0,0,0-.956H.956v-.769a1.734,1.734,0,0,1,1.732-1.732H29.846a1.734,1.734,0,0,1,1.732,1.732v.769h-4.3a.478.478,0,0,0,0,.956h4.3V209.7H9.383a.478.478,0,1,0,0,.956H32.056a.478.478,0,0,0,.478-.478v-7.184A2.691,2.691,0,0,0,30.143,200.322ZM18.8,199.211a1.129,1.129,0,0,1,1.128-1.128h5.028a1.129,1.129,0,0,1,1.128,1.128v1.095H18.8Zm-12.355,0a1.129,1.129,0,0,1,1.128-1.128H12.6a1.129,1.129,0,0,1,1.128,1.128v1.095H6.447Z" transform="translate(0 -183.019)" fill="#061745"/>
  <path id="Path_6469" data-name="Path 6469" d="M188.441,113.618H191a.478.478,0,0,0,0-.956h-1.473l1.825-1.991a.482.482,0,0,0-.352-.8h-2.318a.478.478,0,0,0,0,.956h1.232l-1.825,1.991A.482.482,0,0,0,188.441,113.618Z" transform="translate(-175.992 -105.32)" fill="#061745"/>
  <path id="Path_6470" data-name="Path 6470" d="M275.567,43.9h4.123a.478.478,0,1,0,0-.956h-3.037l3.39-3.7a.482.482,0,0,0-.352-.8h-3.882a.478.478,0,0,0,0,.956h2.8l-3.39,3.7A.482.482,0,0,0,275.567,43.9Z" transform="translate(-257.567 -38.441)" fill="#061745"/>
</svg>
