<?xml version="1.0" encoding="utf-8"?>
<!-- Generator: Adobe Illustrator 17.1.0, SVG Export Plug-In . SVG Version: 6.00 Build 0)  -->
<!DOCTYPE svg PUBLIC "-//W3C//DTD SVG 1.1//EN" "http://www.w3.org/Graphics/SVG/1.1/DTD/svg11.dtd">
<svg version="1.1" id="Layer_1" xmlns="http://www.w3.org/2000/svg" xmlns:xlink="http://www.w3.org/1999/xlink" x="0px" y="0px"
	 viewBox="0 0 137.8 103.5" enable-background="new 0 0 137.8 103.5" xml:space="preserve">
<g>
	<g>
		<path fill="#999999" d="M9.1,93.7c0,0.7-0.1,1.4-0.3,2c-0.2,0.6-0.5,1.2-0.8,1.6c-0.4,0.5-0.8,0.8-1.4,1.1c-0.6,0.3-1.2,0.4-2,0.4
			c-0.7,0-1.4-0.1-1.9-0.3c-0.6-0.2-1.1-0.5-1.5-0.9c-0.4-0.4-0.7-0.9-0.9-1.5S0,94.7,0,94c0-0.2,0-0.4,0.1-0.7
			c0.1-0.3,0.2-0.5,0.3-0.8s0.2-0.5,0.3-0.7s0.2-0.4,0.2-0.5l1.6,0.8c-0.1,0.1-0.1,0.3-0.2,0.4c-0.1,0.2-0.1,0.3-0.2,0.5
			S2,93.4,2,93.6c0,0.2,0,0.3,0,0.4c0,1.1,0.2,1.9,0.7,2.4s1.1,0.8,2,0.8c0.9,0,1.5-0.3,1.9-0.9s0.6-1.5,0.6-2.7
			c0-0.4,0-0.7-0.1-1.1c-0.1-0.4-0.2-0.7-0.4-1S6.2,91,6,90.8c-0.3-0.2-0.5-0.4-0.9-0.5c-0.4-0.1-0.8-0.3-1.2-0.5
			c-0.4-0.2-0.7-0.4-0.9-0.7c-0.3-0.3-0.5-0.5-0.6-0.9c-0.1-0.3-0.2-0.7-0.2-1.1H4c0,0.3,0,0.5,0.1,0.7c0.1,0.2,0.2,0.3,0.3,0.4
			c0.1,0.1,0.3,0.2,0.5,0.3c0.2,0.1,0.4,0.2,0.7,0.3c0.5,0.2,0.9,0.4,1.3,0.8C7.4,90,7.7,90.4,8,90.8s0.6,0.9,0.8,1.4
			S9.1,93.2,9.1,93.7z"/>
		<path fill="#999999" d="M20.1,99.6c0,0.6-0.1,1.1-0.3,1.6c-0.2,0.5-0.5,0.9-0.9,1.2c-0.4,0.3-0.9,0.6-1.4,0.8
			c-0.5,0.2-1.2,0.3-1.8,0.3c-0.7,0-1.4-0.1-1.9-0.4c-0.6-0.2-1-0.6-1.4-1c-0.4-0.4-0.7-0.8-0.9-1.3c-0.2-0.5-0.3-1-0.3-1.5
			c0-0.4,0.1-0.8,0.2-1.2c0.1-0.4,0.3-0.9,0.6-1.4l1.3,0.7c-0.1,0.2-0.2,0.5-0.3,0.9c-0.1,0.3-0.1,0.7-0.1,1.1c0,0.3,0.1,0.6,0.2,1
			c0.1,0.3,0.3,0.6,0.6,0.9c0.2,0.3,0.5,0.5,0.9,0.6c0.4,0.2,0.8,0.2,1.2,0.2c0.4,0,0.8,0,1.1-0.1c0.3-0.1,0.6-0.2,0.8-0.4
			c0.2-0.2,0.4-0.5,0.5-0.8c0.1-0.3,0.2-0.7,0.2-1.1l0-1.2c0-0.5-0.1-0.8-0.1-1.2c-0.1-0.3-0.2-0.6-0.3-0.9s-0.4-0.4-0.6-0.5
			c-0.3-0.1-0.6-0.2-1-0.2h-1v-1.3h1c0.3,0,0.6-0.1,0.8-0.2s0.5-0.3,0.7-0.6c0.2-0.3,0.3-0.6,0.4-0.9s0.2-0.7,0.2-1.1
			c0-1.8-0.8-2.7-2.3-2.7c-0.4,0-0.7,0.1-1,0.2c-0.3,0.1-0.5,0.3-0.8,0.5s-0.4,0.4-0.5,0.7s-0.2,0.6-0.2,1c0,0.2,0,0.4,0.1,0.7
			s0.3,0.6,0.5,0.9l-1.2,0.8c-0.4-0.4-0.7-0.7-0.9-1.1s-0.3-0.8-0.3-1.2c0-0.6,0.1-1.1,0.3-1.6c0.2-0.5,0.5-0.9,0.8-1.2
			c0.4-0.4,0.8-0.6,1.3-0.8c0.5-0.2,1.1-0.3,1.7-0.3c0.7,0,1.2,0.1,1.8,0.3s1,0.5,1.3,0.9c0.4,0.4,0.6,0.8,0.8,1.3
			c0.2,0.5,0.3,1.1,0.3,1.8c0,0.4-0.1,0.8-0.2,1.1c-0.1,0.3-0.3,0.6-0.5,0.9s-0.5,0.5-0.7,0.8c-0.3,0.2-0.6,0.4-0.9,0.7
			c0.7,0.2,1.3,0.6,1.7,1.2c0.4,0.6,0.6,1.4,0.6,2.2L20.1,99.6z"/>
		<path fill="#999999" d="M34.4,95.9c0,0.6-0.1,1.2-0.2,1.8c-0.1,0.6-0.3,1.2-0.5,1.7c-0.2,0.6-0.5,1.1-0.9,1.6
			c-0.4,0.5-0.7,0.9-1.2,1.3s-0.9,0.7-1.5,0.9s-1.1,0.3-1.7,0.3c-0.6,0-1.2-0.1-1.8-0.3c-0.6-0.2-1.1-0.5-1.5-0.9s-0.9-0.8-1.2-1.3
			c-0.4-0.5-0.7-1-0.9-1.6c-0.2-0.6-0.4-1.1-0.6-1.7c-0.1-0.6-0.2-1.2-0.2-1.8c0-1.2,0.1-2.3,0.4-3.2s0.7-1.7,1.2-2.4
			c0.5-0.6,1.1-1.2,1.7-1.6c0.7-0.4,1.3-0.7,2.1-0.8l-0.2-3.4h1.8L29,88c0.7,0.2,1.4,0.4,2,0.8c0.6,0.4,1.2,0.9,1.7,1.5
			c0.5,0.6,0.9,1.4,1.2,2.3C34.3,93.6,34.4,94.6,34.4,95.9z M32.5,95.9c0-1-0.1-1.8-0.3-2.6c-0.2-0.8-0.4-1.4-0.7-2
			c-0.3-0.5-0.7-1-1.1-1.3s-0.9-0.6-1.3-0.7l0.2,5h-1.9l0.2-5c-0.5,0.1-0.9,0.3-1.3,0.7c-0.4,0.3-0.8,0.8-1.1,1.3s-0.6,1.2-0.8,2
			c-0.2,0.8-0.3,1.6-0.3,2.6c0,0.9,0.1,1.7,0.3,2.4s0.4,1.4,0.8,1.9c0.4,0.5,0.8,1,1.3,1.3c0.5,0.3,1.2,0.5,1.9,0.5
			c0.6,0,1.2-0.2,1.7-0.5c0.5-0.3,0.9-0.7,1.3-1.3c0.4-0.5,0.6-1.2,0.8-1.9C32.4,97.6,32.5,96.8,32.5,95.9z"/>
		<path fill="#999999" d="M51.9,92.7c0,0.8-0.1,1.6-0.3,2.2c-0.2,0.7-0.4,1.2-0.8,1.7c-0.4,0.5-0.8,0.9-1.4,1.3s-1.3,0.6-2.1,0.9
			v-1.7c1-0.2,1.6-0.7,2.1-1.5s0.6-1.7,0.6-3c0-0.6,0-1.2-0.1-1.7s-0.2-0.9-0.4-1.3c-0.2-0.3-0.4-0.6-0.8-0.8s-0.7-0.3-1.1-0.3
			c-0.9,0-1.5,0.3-1.9,0.9s-0.6,1.6-0.6,2.8v1.8h-1.7v-1.8c0-1.2-0.2-2.1-0.6-2.8c-0.4-0.6-1.1-1-1.9-1c-0.4,0-0.8,0.1-1.1,0.3
			c-0.3,0.2-0.5,0.4-0.7,0.8s-0.3,0.8-0.4,1.3s-0.1,1.1-0.1,1.7c0,0.5,0.1,1,0.2,1.5c0.1,0.5,0.3,0.9,0.5,1.3c0.2,0.4,0.5,0.7,0.9,1
			c0.3,0.3,0.8,0.5,1.2,0.7v1.7c-0.8-0.2-1.5-0.5-2.1-0.9c-0.6-0.4-1.1-0.8-1.4-1.3s-0.7-1.1-0.8-1.7c-0.2-0.6-0.3-1.4-0.3-2.2
			c0-0.9,0.1-1.7,0.3-2.4c0.2-0.7,0.5-1.3,0.8-1.8c0.4-0.5,0.8-0.8,1.4-1.1c0.5-0.2,1.1-0.4,1.8-0.4c0.4,0,0.8,0,1.2,0.1
			c0.3,0.1,0.6,0.2,0.9,0.4c0.3,0.2,0.5,0.4,0.7,0.7c0.2,0.3,0.4,0.6,0.5,1c0.2-0.4,0.3-0.7,0.5-1c0.2-0.3,0.4-0.5,0.7-0.7
			c0.3-0.2,0.6-0.3,0.9-0.4s0.7-0.2,1.2-0.2c0.7,0,1.4,0.2,1.9,0.5s1,0.7,1.4,1.2s0.6,1.1,0.8,1.8C51.8,91.3,51.9,92,51.9,92.7z"/>
		<path fill="#999999" d="M69.5,92.8c0,0.8-0.1,1.5-0.3,2.2c-0.2,0.6-0.4,1.2-0.8,1.7C68,97.2,67.6,97.6,67,98s-1.3,0.6-2.1,0.9
			v-1.6c1-0.3,1.6-0.8,2.1-1.6c0.4-0.7,0.6-1.7,0.6-2.9c0-0.5,0-0.9-0.1-1.4c-0.1-0.4-0.2-0.8-0.3-1.2c-0.2-0.3-0.4-0.6-0.7-0.8
			c-0.3-0.2-0.7-0.3-1.2-0.3c-0.4,0-0.8,0.1-1.1,0.2c-0.3,0.1-0.6,0.3-0.8,0.6c-0.2,0.3-0.3,0.6-0.4,1c-0.1,0.4-0.1,0.9-0.1,1.5v1.9
			H61l-0.1-1.9c0-0.6,0-1-0.1-1.4c0-0.4-0.1-0.7-0.3-1s-0.4-0.5-0.7-0.6c-0.3-0.1-0.7-0.2-1.3-0.2c-0.6,0-1,0.1-1.3,0.3
			c-0.3,0.2-0.6,0.4-0.8,0.7c-0.2,0.3-0.3,0.7-0.4,1.1S56,92.3,56,92.8c0,1.1,0.2,2.1,0.7,2.8c0.5,0.7,1.2,1.3,2.1,1.6v1.6
			c-0.8-0.2-1.5-0.6-2.1-0.9c-0.6-0.4-1.1-0.8-1.5-1.3c-0.4-0.5-0.7-1.1-0.8-1.7s-0.3-1.3-0.3-2.1c0-0.9,0.1-1.7,0.3-2.4
			c0.2-0.7,0.5-1.3,0.8-1.9c0.3-0.6,0.7-1.1,1.2-1.5c0.5-0.4,0.9-0.8,1.4-1.2c0.5-0.4,1-0.7,1.6-1s1.1-0.6,1.6-0.8s1-0.5,1.5-0.8
			c0.5-0.3,0.9-0.5,1.2-0.8l0.7,1.2c-0.6,0.3-1,0.6-1.4,0.8c-0.4,0.2-0.8,0.4-1.1,0.6s-0.6,0.3-0.8,0.4c-0.2,0.1-0.5,0.2-0.7,0.3
			c-0.2,0.1-0.5,0.2-0.8,0.3s-0.6,0.2-0.9,0.4c-0.1,0-0.3,0.1-0.5,0.3c-0.2,0.1-0.5,0.3-0.7,0.5s-0.5,0.4-0.7,0.6
			c-0.2,0.2-0.3,0.4-0.3,0.5l0.1,0.1c0.1-0.1,0.2-0.2,0.3-0.3c0.1-0.1,0.3-0.2,0.4-0.3s0.3-0.2,0.5-0.2s0.4-0.1,0.7-0.1
			c0.4,0,0.8,0,1.2,0.1c0.3,0.1,0.6,0.2,0.9,0.4c0.3,0.2,0.5,0.4,0.7,0.7s0.4,0.6,0.5,1c0.1-0.3,0.3-0.6,0.5-0.9
			c0.2-0.3,0.4-0.5,0.7-0.7c0.3-0.2,0.6-0.3,0.9-0.4c0.3-0.1,0.7-0.2,1.2-0.2c0.8,0,1.5,0.1,2,0.4c0.6,0.3,1,0.6,1.3,1.1
			c0.3,0.5,0.6,1,0.7,1.6C69.4,91.4,69.5,92.1,69.5,92.8z"/>
		<path fill="#999999" d="M80.9,92.9c0,1.3-0.3,2.5-0.8,3.5s-1.3,1.8-2.4,2.5l-0.4-1.6c0.5-0.4,1-0.9,1.3-1.6
			c0.3-0.7,0.5-1.6,0.5-2.7c0-0.7-0.1-1.3-0.2-1.8c-0.1-0.5-0.3-1-0.6-1.3c-0.2-0.4-0.5-0.6-0.9-0.8c-0.4-0.2-0.8-0.3-1.2-0.3
			c-0.9,0-1.5,0.4-2,1.1c-0.4,0.7-0.7,1.7-0.7,3.1c0,1.1,0.1,2,0.4,2.8c0.3,0.7,0.7,1.3,1.3,1.7l-0.4,1.6c-1-0.8-1.8-1.6-2.4-2.6
			c-0.5-1-0.8-2.1-0.8-3.4c0-0.9,0.1-1.7,0.3-2.5s0.5-1.3,0.9-1.8c0.4-0.5,0.9-0.8,1.4-1.1c0.6-0.2,1.2-0.4,1.9-0.4
			c0.7,0,1.4,0.1,1.9,0.4s1.1,0.6,1.5,1.1c0.4,0.5,0.7,1.1,1,1.8C80.8,91.2,80.9,92,80.9,92.9z"/>
		<path fill="#999999" d="M92.2,93.7c0,0.8-0.1,1.6-0.3,2.2s-0.5,1.2-0.9,1.6s-0.9,0.8-1.4,1s-1.2,0.3-1.9,0.3
			c-0.7,0-1.4-0.1-1.9-0.3s-1-0.5-1.4-1s-0.7-1-0.9-1.6c-0.2-0.6-0.3-1.4-0.3-2.2c0-0.6,0-1,0.1-1.5c0.1-0.4,0.2-0.8,0.4-1.2
			c0.2-0.3,0.3-0.6,0.6-0.9c0.2-0.2,0.5-0.5,0.7-0.6l0-0.1c-0.4-0.2-0.7-0.3-1-0.5c-0.3-0.2-0.5-0.4-0.7-0.7s-0.3-0.6-0.4-0.9
			c-0.1-0.3-0.2-0.8-0.2-1.2c0-0.6,0.1-1.1,0.2-1.5c0.2-0.4,0.4-0.8,0.7-1.1c0.3-0.3,0.7-0.5,1.1-0.7c0.4-0.2,0.9-0.2,1.5-0.2
			c0.6,0,1.1,0.1,1.5,0.2c0.4,0.2,0.8,0.4,1.1,0.7c0.3,0.3,0.6,0.7,0.7,1.1c0.2,0.4,0.3,0.9,0.3,1.5c0,0.3,0,0.6-0.1,0.8
			c-0.1,0.2-0.1,0.5-0.2,0.6c-0.1,0.2-0.2,0.4-0.4,0.5c-0.1,0.2-0.3,0.3-0.4,0.5l0,0.1c0.5,0.1,0.9,0.3,1.3,0.5
			c0.4,0.2,0.8,0.6,1.1,1c0.3,0.4,0.6,0.9,0.7,1.5C92.1,92.2,92.2,92.9,92.2,93.7z M88,86.1c0-0.6-0.2-1.1-0.5-1.5
			c-0.3-0.4-0.8-0.5-1.4-0.5s-1,0.2-1.3,0.5c-0.3,0.4-0.5,0.9-0.5,1.5c0,0.8,0.2,1.4,0.5,1.8c0.3,0.4,0.8,0.6,1.4,0.6
			c0.6,0,1-0.2,1.3-0.6S88,86.9,88,86.1z M90.3,93.7c0-1.3-0.2-2.2-0.7-2.8c-0.5-0.6-1.2-0.9-2-0.9c-0.8,0-1.5,0.3-1.9,0.9
			c-0.4,0.6-0.6,1.5-0.6,2.8c0,1.2,0.2,2.1,0.7,2.7c0.5,0.6,1.1,0.9,2,0.9c0.9,0,1.5-0.3,1.9-0.9C90.1,95.8,90.3,94.9,90.3,93.7z"/>
		<path fill="#999999" d="M103.3,93.7c0,0.7-0.1,1.4-0.3,2c-0.2,0.6-0.5,1.2-0.8,1.6c-0.4,0.5-0.8,0.8-1.4,1.1
			c-0.6,0.3-1.2,0.4-2,0.4c-0.7,0-1.4-0.1-1.9-0.3c-0.6-0.2-1.1-0.5-1.5-0.9c-0.4-0.4-0.7-0.9-0.9-1.5s-0.3-1.3-0.3-2
			c0-0.2,0-0.4,0.1-0.7c0.1-0.3,0.2-0.5,0.3-0.8s0.2-0.5,0.3-0.7s0.2-0.4,0.2-0.5l1.6,0.8c-0.1,0.1-0.1,0.3-0.2,0.4
			c-0.1,0.2-0.1,0.3-0.2,0.5s-0.1,0.3-0.1,0.5c0,0.2,0,0.3,0,0.4c0,1.1,0.2,1.9,0.7,2.4s1.1,0.8,2,0.8c0.9,0,1.5-0.3,1.9-0.9
			s0.6-1.5,0.6-2.7c0-0.4,0-0.7-0.1-1.1c-0.1-0.4-0.2-0.7-0.4-1s-0.4-0.6-0.7-0.8c-0.3-0.2-0.5-0.4-0.9-0.5
			c-0.4-0.1-0.8-0.3-1.2-0.5c-0.4-0.2-0.7-0.4-0.9-0.7c-0.3-0.3-0.5-0.5-0.6-0.9c-0.1-0.3-0.2-0.7-0.2-1.1h1.8c0,0.3,0,0.5,0.1,0.7
			c0.1,0.2,0.2,0.3,0.3,0.4c0.1,0.1,0.3,0.2,0.5,0.3c0.2,0.1,0.4,0.2,0.7,0.3c0.5,0.2,0.9,0.4,1.3,0.8c0.4,0.3,0.8,0.7,1.1,1.2
			s0.6,0.9,0.8,1.4S103.3,93.2,103.3,93.7z"/>
		<path fill="#999999" d="M115.4,98.3c0,0.6-0.1,1.3-0.3,1.9s-0.5,1.2-1,1.7c-0.4,0.5-0.9,0.9-1.6,1.2c-0.6,0.3-1.3,0.5-2.1,0.5
			c-0.7,0-1.4-0.1-2-0.4c-0.6-0.3-1.2-0.7-1.6-1.3c-0.5-0.6-0.8-1.3-1.1-2.2c-0.3-0.9-0.4-1.9-0.4-3.1v-2c0-1.3,0.1-2.5,0.4-3.7
			c0.2-1.2,0.7-2.3,1.3-3.3l1.6,0.6c-0.3,0.5-0.5,1.1-0.7,1.6c-0.2,0.5-0.3,1.1-0.4,1.6c-0.1,0.5-0.2,1.1-0.2,1.6c0,0.5,0,1.1,0,1.7
			v1.7c0,1,0.1,1.8,0.3,2.5c0.2,0.7,0.4,1.3,0.7,1.8c0.3,0.5,0.7,0.8,1.1,1s0.8,0.3,1.3,0.3c0.5,0,1-0.1,1.3-0.3
			c0.4-0.2,0.7-0.5,0.9-0.9c0.2-0.4,0.4-0.8,0.5-1.2c0.1-0.4,0.2-0.9,0.2-1.3c0-0.2,0-0.5-0.1-0.8s-0.2-0.6-0.3-0.9
			c-0.2-0.3-0.4-0.5-0.6-0.7s-0.6-0.3-1-0.3h-1.2v-1.7h1.2c0.4,0,0.7,0,0.9-0.1c0.2-0.1,0.4-0.2,0.6-0.4c0.1-0.2,0.2-0.4,0.3-0.6
			c0.1-0.2,0.1-0.5,0.1-0.8c0-0.3,0-0.5-0.1-0.6c-0.1-0.2-0.2-0.3-0.3-0.4c-0.1-0.1-0.3-0.2-0.4-0.3s-0.3-0.1-0.5-0.2
			c-0.2-0.1-0.3-0.2-0.5-0.3s-0.3-0.3-0.4-0.4c-0.1-0.2-0.2-0.4-0.3-0.7c-0.1-0.3-0.1-0.6-0.1-1h1.7c0,0.4,0.1,0.7,0.2,1
			c0.1,0.2,0.3,0.4,0.5,0.6c0.2,0.1,0.4,0.3,0.7,0.4c0.2,0.1,0.5,0.2,0.7,0.4s0.4,0.4,0.5,0.6c0.1,0.2,0.2,0.6,0.2,1
			c0,0.5-0.2,1.1-0.5,1.5c-0.3,0.5-0.9,0.9-1.7,1.3c0.4,0.1,0.7,0.3,1,0.5c0.3,0.2,0.6,0.4,0.8,0.7c0.2,0.3,0.4,0.6,0.5,1
			C115.3,97.3,115.4,97.8,115.4,98.3z"/>
		<path fill="#999999" d="M126.7,92.9c0,1.3-0.3,2.5-0.8,3.5s-1.3,1.8-2.4,2.5l-0.4-1.6c0.5-0.4,1-0.9,1.3-1.6
			c0.3-0.7,0.5-1.6,0.5-2.7c0-0.7-0.1-1.3-0.2-1.8c-0.1-0.5-0.3-1-0.6-1.3c-0.2-0.4-0.5-0.6-0.9-0.8c-0.4-0.2-0.8-0.3-1.2-0.3
			c-0.9,0-1.5,0.4-2,1.1c-0.4,0.7-0.7,1.7-0.7,3.1c0,1.1,0.1,2,0.4,2.8c0.3,0.7,0.7,1.3,1.3,1.7l-0.4,1.6c-1-0.8-1.8-1.6-2.4-2.6
			c-0.5-1-0.8-2.1-0.8-3.4c0-0.9,0.1-1.7,0.3-2.5s0.5-1.3,0.9-1.8c0.4-0.5,0.9-0.8,1.4-1.1c0.6-0.2,1.2-0.4,1.9-0.4
			c0.7,0,1.4,0.1,1.9,0.4s1.1,0.6,1.5,1.1c0.4,0.5,0.7,1.1,1,1.8C126.6,91.2,126.7,92,126.7,92.9z"/>
		<path fill="#999999" d="M137.8,93.7c0,0.7-0.1,1.4-0.3,2c-0.2,0.6-0.5,1.2-0.8,1.6c-0.4,0.5-0.8,0.8-1.4,1.1
			c-0.6,0.3-1.2,0.4-2,0.4c-0.7,0-1.4-0.1-1.9-0.3c-0.6-0.2-1.1-0.5-1.5-0.9c-0.4-0.4-0.7-0.9-0.9-1.5s-0.3-1.3-0.3-2
			c0-0.2,0-0.4,0.1-0.7c0.1-0.3,0.2-0.5,0.3-0.8s0.2-0.5,0.3-0.7s0.2-0.4,0.2-0.5l1.6,0.8c-0.1,0.1-0.1,0.3-0.2,0.4
			c-0.1,0.2-0.1,0.3-0.2,0.5s-0.1,0.3-0.1,0.5c0,0.2,0,0.3,0,0.4c0,1.1,0.2,1.9,0.7,2.4s1.1,0.8,2,0.8c0.9,0,1.5-0.3,1.9-0.9
			s0.6-1.5,0.6-2.7c0-0.4,0-0.7-0.1-1.1c-0.1-0.4-0.2-0.7-0.4-1s-0.4-0.6-0.7-0.8c-0.3-0.2-0.5-0.4-0.9-0.5
			c-0.4-0.1-0.8-0.3-1.2-0.5c-0.4-0.2-0.7-0.4-0.9-0.7c-0.3-0.3-0.5-0.5-0.6-0.9c-0.1-0.3-0.2-0.7-0.2-1.1h1.8c0,0.3,0,0.5,0.1,0.7
			c0.1,0.2,0.2,0.3,0.3,0.4c0.1,0.1,0.3,0.2,0.5,0.3c0.2,0.1,0.4,0.2,0.7,0.3c0.5,0.2,0.9,0.4,1.3,0.8c0.4,0.3,0.8,0.7,1.1,1.2
			s0.6,0.9,0.8,1.4S137.8,93.2,137.8,93.7z"/>
	</g>
	<path fill="#999999" d="M68,8.8c6.2-0.6,11.5,4,12.2,9.8c0.1,0.7,0.7,1.3,1.4,1.3h5.8c0.8,0,1.5-0.7,1.4-1.6
		C88.2,7.9,79.2-0.3,68.3,0C57.6,0.4,49.2,9.6,49.2,20.4v6.4h-0.5c-2.9,0-5.2,2.3-5.2,5.2v29c0,2.9,2.3,5.2,5.2,5.2h40.4
		c2.9,0,5.2-2.3,5.2-5.2v-29c0-2.9-2.3-5.2-5.2-5.2h-0.1h-8.6H57.9v-6.6C57.9,14.5,62.2,9.4,68,8.8z M64.6,41.9
		c0.9-2.1,3.2-3.3,5.4-2.8c2.4,0.5,4,2.4,4.1,4.8c0,1.6-0.6,3-2,4c-0.4,0.3-0.5,0.6-0.5,1.1c0,2.1,0,4.2,0,6.4l0,0
		c0.1,0.8-0.4,1.8-1.2,2.1c-1.8,0.9-3.7-0.4-3.7-2.1l0,0c0-2.1,0-4.2,0-6.4c0-0.4-0.1-0.7-0.5-1C64.3,46.5,63.7,44.1,64.6,41.9z"/>
</g>
</svg>
