<?xml version="1.0" encoding="utf-8"?>
<!-- Generator: Adobe Illustrator 17.1.0, SVG Export Plug-In . SVG Version: 6.00 Build 0)  -->
<!DOCTYPE svg PUBLIC "-//W3C//DTD SVG 1.1//EN" "http://www.w3.org/Graphics/SVG/1.1/DTD/svg11.dtd">
<svg version="1.1" id="Layer_1" xmlns="http://www.w3.org/2000/svg" xmlns:xlink="http://www.w3.org/1999/xlink" x="0px" y="0px"
	 viewBox="0 0 380.5 35.7" enable-background="new 0 0 380.5 35.7" xml:space="preserve">
<g>
	<path fill="#231F20" d="M143,22.5l0.1,3.7v0.3v0.1l-0.1-0.1l-0.2-0.2c-0.1,0-1.8-1.9-2.7-2.7L114.4,0.2v5.4L147,35.4h0.1V0.6h-4
		L143,22.5L143,22.5z"/>
	<polygon fill="#231F20" points="114.5,34.9 118.5,34.9 118.5,19.2 114.5,15.4 	"/>
	<path fill="#231F20" d="M102.4,22.5l0.1,3.7v0.3v0.1l-0.1-0.1l-0.2-0.2c0,0-1.8-1.9-2.7-2.7L73.8,0.2v5.4l32.6,29.7V0.6h-4V22.5z"
		/>
	<path fill="#231F20" d="M17.8,0C13,0,8.6,1.9,5.2,5.2C1.9,8.6,0,13.1,0,17.8v0.1c0,4.8,1.9,9.3,5.2,12.6c3.3,3.4,7.8,5.2,12.6,5.2
		c2.9,0,5.3-1,6.9-1.7c2-1,3.3-2,4-2.7v-5.2c-2.7,3.4-6.7,5.3-10.9,5.3c-7.6,0-13.8-6.2-13.8-13.6c0-7.6,6.2-13.8,13.8-13.8
		c4.2,0,8.1,1.9,10.9,5.3V4.4c-0.7-0.6-2-1.7-4-2.7C23.1,1,20.7,0,17.8,0z"/>
	<polygon fill="#231F20" points="73.8,34.9 77.9,34.9 77.9,19.2 73.8,15.4 	"/>
	<rect x="155.1" y="15.8" fill="#231F20" width="25.7" height="4"/>
	<polygon fill="#231F20" points="221.8,4.7 232.5,4.7 232.5,34.9 236.6,34.9 236.6,4.7 247.3,4.7 247.4,4.7 247.4,0.6 221.8,0.6 	
		"/>
	<rect x="155.1" y="30.9" fill="#231F20" width="25.7" height="4"/>
	<path fill="#231F20" d="M204.4,0c-4.8,0-9.2,1.9-12.6,5.2c-3.3,3.4-5.2,7.9-5.2,12.6v0.1c0,4.8,1.9,9.3,5.2,12.6
		c3.3,3.4,7.8,5.2,12.6,5.2c2.9,0,5.3-1,6.9-1.7c2-1,3.3-2,4-2.7v-5.2c-2.7,3.4-6.7,5.3-10.9,5.3c-7.6,0-13.8-6.2-13.8-13.6
		c0-7.6,6.2-13.8,13.8-13.8c4.2,0,8.1,1.9,10.9,5.3V4.4c-0.6-0.6-1.9-1.7-4-2.7C209.7,1,207.3,0,204.4,0z"/>
	<rect x="155.1" y="0.6" fill="#231F20" width="25.7" height="4"/>
	<path fill="#231F20" d="M63.6,5.2C60.3,1.8,55.7,0,51,0s-9.2,1.8-12.6,5.2C35,8.5,33.2,13,33.2,17.8c0,4.7,1.8,9.2,5.2,12.6
		c3.3,3.4,7.9,5.2,12.6,5.2s9.2-1.8,12.6-5.2c3.4-3.3,5.2-7.8,5.2-12.6S67,8.5,63.6,5.2z M51,31.5c-7.6,0-13.8-6.2-13.8-13.8
		S43.4,4,51,4s13.8,6.2,13.8,13.8C64.8,25.4,58.6,31.5,51,31.5z"/>
	<path fill="#FF0000" d="M326.2,0.7h4.8l11.1,14.6l11.3-14.6h4.8v34.7h-3.7V5.1l-12.2,15.1l0.1,0.1L330,5.1"/>
	<path fill="#FF0000" d="M361.4,30.1c0,0,0.8,1.4,1.7,2.4c1,1,2.1,1.7,3.3,2.2c1.2,0.5,2.5,0.8,3.9,0.8c1.4,0,2.8-0.2,4-0.6
		c1.2-0.4,2.3-1,3.2-1.9c0.9-0.8,1.6-1.9,2.1-3s0.8-2.6,0.8-4.2s-0.3-2.9-0.8-4c-0.6-1.1-1.3-2-2.2-2.7c-0.9-0.7-1.9-1.3-3-1.8
		c-1.1-0.5-2.3-0.9-3.4-1.3c-0.9-0.4-1.9-0.7-2.7-1.1c-0.9-0.4-1.7-0.8-2.4-1.3c-0.7-0.5-1.2-1.1-1.7-1.8c-0.4-0.7-0.6-1.5-0.6-2.6
		c0-1,0.2-1.8,0.6-2.5c0.4-0.7,0.8-1.2,1.4-1.7c0.6-0.4,1.3-0.7,2-0.9c0.8-0.2,1.5-0.3,2.3-0.3c0.9,0,1.7,0.2,2.4,0.4
		c0.8,0.3,1.4,0.7,2,1.3c0.6,0.6,0.9,0.9,1.2,1.7h3.3c-0.4-1.1-0.8-2.3-1.6-3.2c-0.7-0.9-1.7-1.7-2.9-2.3c-1.2-0.6-2.7-0.9-4.5-0.9
		c-1.4,0-2.6,0.2-3.8,0.6c-1.1,0.4-2.1,0.9-2.9,1.6c-0.8,0.7-1.4,1.6-1.9,2.6s-0.7,2.3-0.7,3.6c0,1.7,0.3,3,0.9,4.1
		c0.6,1.1,1.3,2,2.2,2.7c0.9,0.7,1.9,1.3,3,1.9c1.1,0.5,2.3,0.9,3.4,1.3c0.9,0.3,1.7,0.7,2.6,1c0.9,0.4,1.7,0.8,2.4,1.3
		c0.7,0.5,1.2,1.1,1.7,1.7c0.4,0.7,0.6,1.5,0.6,2.5c0,1.2-0.2,2.2-0.6,3c-0.4,0.8-0.9,1.5-1.5,2.1c-0.7,0.5-1.4,0.9-2.3,1.1
		s-1.7,0.4-2.7,0.4c-1,0-2-0.2-2.9-0.6c-0.9-0.4-1.7-0.9-2.3-1.7"/>
	<rect x="268.3" y="0.8" fill="#231F20" width="2.6" height="34.3"/>
	<path fill="#FF0000" d="M311.8,31.1c4,0,8-1.9,10.6-5.2v5c-0.6,0.6-1.9,1.7-3.8,2.6c-1.6,0.7-4,1.7-6.7,1.7c-4.7,0-9-1.7-12.2-5.1
		c-3.2-3.2-5.1-7.6-5.1-12.2l0,0l0,0v-0.1c0-4.6,1.9-8.9,5.1-12.2c3.3-3.2,7.6-5.1,12.2-5.1c2.8,0,5.2,0.9,6.7,1.7
		c2,0.9,3.2,2,3.8,2.6v5c-2.7-3.3-6.5-5.2-10.6-5.2c-7.4,0-13.4,6-13.4,13.4C298.4,25.1,304.4,31.1,311.8,31.1z"/>
</g>
</svg>
