<svg xmlns="http://www.w3.org/2000/svg" width="35.567" height="35.567" viewBox="0 0 35.567 35.567">
  <g id="exercise" transform="translate(17.783 0) rotate(45)" opacity="0.5">
    <g id="Group_2484" data-name="Group 2484" transform="translate(0 0)">
      <g id="Group_2483" data-name="Group 2483">
        <path id="Path_6456" data-name="Path 6456" d="M24.573,9.606l-.695-.695a2.458,2.458,0,0,0,.059-3.533l-.347-.347.347-.347a2.456,2.456,0,1,0-3.472-3.473l-.348.347-.347-.347a2.454,2.454,0,0,0-3.473,0l-.059.059L15.543.576a1.965,1.965,0,1,0-2.779,2.778l2.779,2.779-9.41,9.41L3.355,12.765A1.965,1.965,0,1,0,.576,15.543l.694.694-.059.059a2.454,2.454,0,0,0,0,3.473l.347.347-.347.347a2.456,2.456,0,1,0,3.472,3.473l.348-.347.347.347a2.454,2.454,0,0,0,3.473,0l.059-.059.694.695A1.965,1.965,0,1,0,12.385,21.8L9.606,19.017l9.41-9.41,2.778,2.778a1.965,1.965,0,1,0,2.779-2.779Zm-3.413-7.7a1.473,1.473,0,0,1,2.083,2.084l-.347.347L20.813,2.253Zm-4.168,0a1.472,1.472,0,0,1,2.084,0l4.168,4.168a1.472,1.472,0,0,1,0,2.084l-.059.059L16.933,1.965Zm-13,21.338A1.473,1.473,0,0,1,1.906,21.16l.347-.347L4.337,22.9Zm4.168,0a1.472,1.472,0,0,1-2.084,0L1.906,19.076a1.472,1.472,0,0,1,0-2.084l.059-.059,6.252,6.252Zm3.533-.754a.982.982,0,0,1-1.39,1.389l-9.03-9.03A.982.982,0,1,1,2.66,13.459ZM8.911,18.322,6.828,16.238l9.41-9.41,2.084,2.084ZM23.878,11.69a.981.981,0,0,1-1.389,0L13.459,2.66a.982.982,0,0,1,1.39-1.389l9.03,9.03A.982.982,0,0,1,23.878,11.69Z" fill="#061745"/>
      </g>
    </g>
  </g>
</svg>
