<svg xmlns="http://www.w3.org/2000/svg" width="2313.133" height="944.018" viewBox="0 0 2313.133 944.018">
  <g id="Layer_2" data-name="Layer 2" transform="translate(-0.002 557.787) rotate(-14)">
    <g id="Layer_1" data-name="Layer 1" transform="translate(0.06 0.25)">
      <path id="Path_484" data-name="Path 484" d="M2103.6,25.62s-48.659,131.086-326.731,179.141S1552.946,89.8,1434.87,66.733,976.583,88.1,913.906,340.684s-843.4-313-843.4-313" transform="translate(87.246 31.19)" fill="none" stroke="#fff" stroke-miterlimit="10" stroke-width="0.5"/>
      <path id="Path_485" data-name="Path 485" d="M2110.111,24.8s-57.885,126.854-335.889,174.819S1550.855,96.9,1432.734,73.952,978.3,83.267,915.644,335.945,68.24,34.2,68.24,34.2" transform="translate(84.433 30.174)" fill="none" stroke="#fff" stroke-miterlimit="10" stroke-width="0.5"/>
      <path id="Path_486" data-name="Path 486" d="M2116.582,24S2049.4,146.644,1771.4,194.609s-222.694-90.332-340.816-113.4S980,78.414,917.345,331,66,40.593,66,40.593" transform="translate(81.657 29.182)" fill="none" stroke="#fff" stroke-miterlimit="10" stroke-width="0.5"/>
      <path id="Path_487" data-name="Path 487" d="M2123.149,23.17s-76.359,118.435-354.408,166.4S1546.606,111.6,1428.508,88.534,981.775,73.6,919.1,326.187,63.7,47.108,63.7,47.108" transform="translate(78.807 28.154)" fill="none" stroke="#fff" stroke-miterlimit="10" stroke-width="0.5"/>
      <path id="Path_488" data-name="Path 488" d="M2129.558,22.35S2044,136.552,1765.924,184.54s-221.418-65.633-339.494-88.7S983.526,68.77,920.849,321.359,61.42,53.565,61.42,53.565" transform="translate(75.981 27.138)" fill="none" stroke="#fff" stroke-miterlimit="10" stroke-width="0.5"/>
      <path id="Path_489" data-name="Path 489" d="M2136.177,21.53s-94.788,110.015-372.86,157.98S1542.37,126.215,1424.271,103.2,985.264,63.986,922.677,316.575,59.15,60.045,59.15,60.045" transform="translate(73.168 26.121)" fill="none" stroke="#fff" stroke-miterlimit="10" stroke-width="0.5"/>
      <path id="Path_490" data-name="Path 490" d="M2142.7,20.71S2038.684,126.6,1760.635,174.48s-220.366-40.979-338.487-64.043S986.992,59.113,924.338,311.68,56.87,66.5,56.87,66.5" transform="translate(70.342 25.105)" fill="none" stroke="#fff" stroke-miterlimit="10" stroke-width="0.5"/>
      <path id="Path_491" data-name="Path 491" d="M2149.206,19.89s-113.217,101.6-391.288,149.56-219.784-28.64-337.882-51.7-431.3-63.461-493.959,189.016S54.6,72.983,54.6,72.983" transform="translate(67.529 24.089)" fill="none" stroke="#fff" stroke-miterlimit="10" stroke-width="0.5"/>
      <path id="Path_492" data-name="Path 492" d="M2155.736,19.07s-122.4,97.386-400.514,145.4-219.2-16.347-337.323-39.411-427.43-75.6-490.107,176.9S52.33,79.373,52.33,79.373" transform="translate(64.716 23.073)" fill="none" stroke="#fff" stroke-miterlimit="10" stroke-width="0.5"/>
      <path id="Path_493" data-name="Path 493" d="M2162.244,18.26s-131.691,93.176-409.785,141.074-218.552-3.919-336.583-26.983S992.207,44.549,929.53,297.183,50.06,85.908,50.06,85.908" transform="translate(61.903 22.069)" fill="none" stroke="#fff" stroke-miterlimit="10" stroke-width="0.5"/>
      <path id="Path_494" data-name="Path 494" d="M2168.854,17.44S2027.78,106.383,1749.8,154.348s-218.014,8.375-336.135-14.734S993.935,39.743,931.281,292.332,47.78,92.388,47.78,92.388" transform="translate(59.078 21.053)" fill="none" stroke="#fff" stroke-miterlimit="10" stroke-width="0.5"/>
      <path id="Path_495" data-name="Path 495" d="M2175.295,16.62s-150.031,84.756-428.192,132.7-217.432,20.691-335.531-2.374S995.7,34.982,933.042,287.526,45.51,98.868,45.51,98.868" transform="translate(56.264 20.037)" fill="none" stroke="#fff" stroke-miterlimit="10" stroke-width="0.5"/>
      <path id="Path_496" data-name="Path 496" d="M2181.8,15.8s-159.368,80.613-437.417,128.489-216.85,33.029-334.949,9.942S997.412,30.109,934.713,282.675,43.24,105.348,43.24,105.348" transform="translate(53.451 19.021)" fill="none" stroke="#fff" stroke-miterlimit="10" stroke-width="0.5"/>
      <path id="Path_497" data-name="Path 497" d="M2188.3,15S2019.7,91.314,1741.652,139.279s-216.246,45.345-334.367,22.393S999.113,25.256,936.436,277.845,41,111.781,41,111.781" transform="translate(50.675 18.029)" fill="none" stroke="#fff" stroke-miterlimit="10" stroke-width="0.5"/>
      <path id="Path_498" data-name="Path 498" d="M2194.853,14.16s-177.82,72.127-455.869,120.092-215.663,57.683-333.784,34.619S1000.9,20.52,938.224,273.041,38.69,118.286,38.69,118.286" transform="translate(47.813 16.988)" fill="none" stroke="#fff" stroke-miterlimit="10" stroke-width="0.5"/>
      <path id="Path_499" data-name="Path 499" d="M2201.361,13.35s-187.045,67.894-465.095,115.859-214.969,70.022-333.2,47.025S1002.639,15.612,939.962,268.2,36.42,124.753,36.42,124.753" transform="translate(44.999 15.984)" fill="none" stroke="#fff" stroke-miterlimit="10" stroke-width="0.5"/>
      <path id="Path_500" data-name="Path 500" d="M2207.869,12.53S2011.62,76.282,1733.548,124.18s-214.476,82.338-332.6,59.273-396.6-172.669-459.25,79.919S34.15,131.256,34.15,131.256" transform="translate(42.186 14.968)" fill="none" stroke="#fff" stroke-miterlimit="10" stroke-width="0.5"/>
      <path id="Path_501" data-name="Path 501" d="M2214.4,11.71s-205.5,59.475-483.546,107.485-213.894,94.676-332.016,71.656-392.744-184.9-455.309,67.693S31.88,137.758,31.88,137.758" transform="translate(39.373 13.952)" fill="none" stroke="#fff" stroke-miterlimit="10" stroke-width="0.5"/>
      <path id="Path_502" data-name="Path 502" d="M2220.919,10.89S2006.2,66.155,1728.147,114.142s-213.312,107.014-331.411,83.95S1007.844,1.127,945.167,253.716,29.6,144.171,29.6,144.171" transform="translate(36.548 12.936)" fill="none" stroke="#fff" stroke-miterlimit="10" stroke-width="0.5"/>
      <path id="Path_503" data-name="Path 503" d="M2227.428,10.07s-223.926,51.055-502,99.02-212.73,119.353-330.851,96.288S1009.627-3.7,946.928,248.887s-919.6-98.236-919.6-98.236" transform="translate(33.735 11.92)" fill="none" stroke="#fff" stroke-miterlimit="10" stroke-width="0.5"/>
      <path id="Path_504" data-name="Path 504" d="M2233.958,9.25S2000.783,56.1,1722.734,104.06s-212.148,131.669-330.246,108.6S1011.321-8.53,948.666,244.014,25.06,157.108,25.06,157.108" transform="translate(30.922 10.903)" fill="none" stroke="#fff" stroke-miterlimit="10" stroke-width="0.5"/>
      <path id="Path_505" data-name="Path 505" d="M2240.478,8.43s-242.4,42.546-520.449,90.6-211.543,144.007-329.664,120.92-377.338-233.309-440.037,19.28S22.78,163.588,22.78,163.588" transform="translate(28.096 9.887)" fill="none" stroke="#fff" stroke-miterlimit="10" stroke-width="0.5"/>
      <path id="Path_506" data-name="Path 506" d="M2246.936,7.62s-251.6,38.4-529.675,86.368S1506.3,250.334,1388.09,227.247,1014.738-18.2,952.083,234.39,20.55,170.056,20.55,170.056" transform="translate(25.332 8.883)" fill="none" stroke="#fff" stroke-miterlimit="10" stroke-width="0.5"/>
      <path id="Path_507" data-name="Path 507" d="M2253.516,6.8s-260.785,34.194-538.9,82.159-210.379,168.661-328.5,145.552S1016.525-23,953.938,229.495s-935.7-52.959-935.7-52.959" transform="translate(22.47 7.867)" fill="none" stroke="#fff" stroke-miterlimit="10" stroke-width="0.5"/>
      <path id="Path_508" data-name="Path 508" d="M2259.987,6S1989.909,35.939,1711.86,83.9s-209.8,181-327.9,157.935S1018.227-27.88,955.55,224.709,16,182.9,16,182.9" transform="translate(19.694 6.876)" fill="none" stroke="#fff" stroke-miterlimit="10" stroke-width="0.5"/>
      <path id="Path_509" data-name="Path 509" d="M2266.544,5.16s-279.37,25.8-557.352,73.739S1500,272.237,1381.879,249.083,1020.014-32.684,957.337,219.905,13.69,189.474,13.69,189.474" transform="translate(16.831 5.835)" fill="none" stroke="#fff" stroke-miterlimit="10" stroke-width="0.5"/>
      <path id="Path_510" data-name="Path 510" d="M2273.074,4.34S1984.546,25.971,1706.5,73.869s-208.61,205.654-326.731,182.589-358.035-293.97-420.69-41.382S11.42,195.954,11.42,195.954" transform="translate(14.018 4.819)" fill="none" stroke="#fff" stroke-miterlimit="10" stroke-width="0.5"/>
      <path id="Path_511" data-name="Path 511" d="M2279.595,3.52s-297.822,17.354-575.8,65.319-208.095,217.9-326.148,194.95S1023.481-42.43,960.826,210.226,9.14,202.411,9.14,202.411" transform="translate(11.193 3.802)" fill="none" stroke="#fff" stroke-miterlimit="10" stroke-width="0.5"/>
      <path id="Path_512" data-name="Path 512" d="M2286.09,2.71s-306.958,13.144-585.029,61.109-207.445,230.33-325.544,207.266-350.31-318.266-412.987-65.7S6.88,208.879,6.88,208.879" transform="translate(8.392 2.799)" fill="none" stroke="#fff" stroke-miterlimit="10" stroke-width="0.5"/>
      <path id="Path_513" data-name="Path 513" d="M2292.611,1.89s-316.184,8.935-594.233,56.9-206.863,242.669-324.962,219.582S1026.958-52.009,964.281,200.557,4.6,215.359,4.6,215.359" transform="translate(5.566 1.782)" fill="none" stroke="#fff" stroke-miterlimit="10" stroke-width="0.5"/>
      <path id="Path_514" data-name="Path 514" d="M2299.074,1.07S1973.709,5.795,1695.66,53.76,1489.4,308.745,1371.28,285.68,1028.673-56.927,965.974,195.751,2.33,221.839,2.33,221.839" transform="translate(2.753 0.766)" fill="none" stroke="#fff" stroke-miterlimit="10" stroke-width="0.5"/>
      <path id="Path_515" data-name="Path 515" d="M2305.649.25s-334.636.515-612.707,48.48-205.676,267.323-323.775,244.3S1030.412-61.666,967.757,190.9.06,228.3.06,228.3" transform="translate(-0.06 -0.25)" fill="none" stroke="#fff" stroke-miterlimit="10" stroke-width="0.5"/>
    </g>
  </g>
</svg>
