<svg xmlns="http://www.w3.org/2000/svg" width="25.275" height="32.926" viewBox="0 0 25.275 32.926">
  <g id="Group_2504" data-name="Group 2504" transform="translate(0.15 0.15)">
    <path id="Path_6507" data-name="Path 6507" d="M1254.009,541.814l.422.923c-.242.144-.482.283-.717.429a10.535,10.535,0,0,0-2.806,2.531,9.628,9.628,0,0,0-2.1,5.386c-.056.924-.028,1.853-.012,2.78a1,1,0,0,0,.972.97c1.091.011,2.182,0,3.273,0a.427.427,0,0,0,.073-.017v-2.365c0-.432.179-.672.5-.674s.515.241.515.683v2.366h12.231v-.216q0-1.127,0-2.254a.514.514,0,1,1,1.019,0c0,.816,0,1.632,0,2.466.072,0,.135.009.2.009q1.5,0,3,0a1.049,1.049,0,0,0,1.131-1.119c0-.895.039-1.793-.025-2.684a10.379,10.379,0,0,0-.366-1.975,9.84,9.84,0,0,0-2.394-4.145,10.125,10.125,0,0,0-2.723-2.086,1.449,1.449,0,0,1-.136-.092l.416-.91c.091.047.176.09.259.136a11.709,11.709,0,0,1,2.715,2.038,10.919,10.919,0,0,1,3.157,6.123,17.765,17.765,0,0,1,.116,2.108c.017.509,0,1.019,0,1.529a2.051,2.051,0,0,1-2.1,2.1c-2.868,0-5.735-.006-8.6-.006q-6.065,0-12.129.009a2.026,2.026,0,0,1-1.7-.8,2,2,0,0,1-.437-1.252c0-.881-.01-1.763.016-2.644a9.958,9.958,0,0,1,.9-3.743,11.127,11.127,0,0,1,1.707-2.706,11.587,11.587,0,0,1,2.792-2.405C1253.45,542.14,1253.725,541.982,1254.009,541.814Z" transform="translate(-1247.763 -523.234)" fill="#061745" stroke="#061745" stroke-width="0.3"/>
    <path id="Path_6508" data-name="Path 6508" d="M1337.6,445.439a5.606,5.606,0,1,1-5.6,5.584A5.6,5.6,0,0,1,1337.6,445.439Zm4.587,5.6a4.585,4.585,0,1,0-4.615,4.593A4.581,4.581,0,0,0,1342.186,451.036Z" transform="translate(-1325.117 -434.73)" fill="#061745" stroke="#061745" stroke-width="0.3"/>
    <path id="Path_6509" data-name="Path 6509" d="M1447.213,320.427c-.389-.077-.77-.155-1.151-.229-.282-.055-.565-.1-.846-.159a.52.52,0,0,1-.306-.872c.757-.974,1.5-1.956,2.257-2.932.434-.563.87-1.126,1.313-1.682a.487.487,0,0,1,.733-.122.5.5,0,0,1,.057.757l-2.973,3.864c-.027.035-.052.072-.092.127l1.336.272c.269.054.536.113.806.16a.5.5,0,0,1,.437.34.529.529,0,0,1-.153.572c-.164.168-.337.327-.506.49q-1.464,1.415-2.928,2.83a.5.5,0,0,1-.594.108.492.492,0,0,1-.274-.518.623.623,0,0,1,.157-.3c.659-.652,1.327-1.293,1.989-1.942C1446.72,320.945,1446.955,320.693,1447.213,320.427Z" transform="translate(-1428.267 -314.314)" fill="#061745" stroke="#061745" stroke-width="0.3"/>
    <path id="Path_6510" data-name="Path 6510" d="M1297.715,319.227c-.458-.592-.9-1.163-1.343-1.736q-.878-1.139-1.754-2.28a.477.477,0,0,1-.053-.565.455.455,0,0,1,.5-.258.654.654,0,0,1,.341.2c.306.365.592.746.883,1.122q.971,1.253,1.94,2.507c.271.351.544.7.809,1.056a.517.517,0,0,1-.36.828c-.608.119-1.216.235-1.823.353-.049.009-.1.026-.162.044.253.255.488.5.73.734.48.469.963.934,1.445,1.4.187.182.378.36.559.547a.5.5,0,1,1-.7.725c-.464-.44-.918-.89-1.377-1.334q-.971-.938-1.945-1.873a.733.733,0,0,1-.3-.545.506.506,0,0,1,.456-.482l2.013-.4C1297.609,319.262,1297.645,319.248,1297.715,319.227Z" transform="translate(-1290.679 -314.372)" fill="#061745" stroke="#061745" stroke-width="0.3"/>
    <path id="Path_6511" data-name="Path 6511" d="M1253.813,387.493l1.685,1.082a2.165,2.165,0,0,1,.208.145.5.5,0,0,1,.115.695.5.5,0,0,1-.71.124c-.576-.369-1.15-.741-1.726-1.112l-.889-.57a.5.5,0,0,1,.014-.882c.3-.163.612-.291.919-.435.1-.046.2-.1.323-.157l-.755-.68c-.66-.593-1.323-1.183-1.978-1.781a.488.488,0,0,1-.068-.74.5.5,0,0,1,.759,0q1.645,1.464,3.285,2.933a.517.517,0,0,1-.133.884c-.243.126-.5.233-.743.349Z" transform="translate(-1250.562 -377.397)" fill="#061745" stroke="#061745" stroke-width="0.3"/>
    <path id="Path_6512" data-name="Path 6512" d="M1490.057,386.386l.954.443a3.091,3.091,0,0,1,.334.161.5.5,0,0,1,.007.853q-1.314.85-2.631,1.694a.5.5,0,0,1-.709-.114.468.468,0,0,1,.122-.7c.431-.3.88-.583,1.323-.872.174-.114.349-.226.552-.358-.351-.167-.672-.332-1-.475a.52.52,0,0,1-.162-.91c.745-.673,1.5-1.339,2.245-2.007.35-.313.7-.628,1.051-.937a.506.506,0,1,1,.687.741c-.831.754-1.67,1.5-2.506,2.246Z" transform="translate(-1468.293 -377.399)" fill="#061745" stroke="#061745" stroke-width="0.3"/>
  </g>
</svg>
