<?xml version="1.0" encoding="utf-8"?>
<!-- Generator: Adobe Illustrator 17.1.0, SVG Export Plug-In . SVG Version: 6.00 Build 0)  -->
<!DOCTYPE svg PUBLIC "-//W3C//DTD SVG 1.1//EN" "http://www.w3.org/Graphics/SVG/1.1/DTD/svg11.dtd">
<svg version="1.1" id="Layer_1" xmlns="http://www.w3.org/2000/svg" xmlns:xlink="http://www.w3.org/1999/xlink" x="0px" y="0px"
	 viewBox="0 0 180 180" enable-background="new 0 0 180 180" xml:space="preserve">
<g>
	<path fill="#F8F8F8" d="M0,89.6C0,40.2,40.7-0.1,90.3,0C139.6,0.1,180,40.6,180,89.8c0,49.8-40.6,90.3-90.4,90.1
		C40.1,179.8,0,139.3,0,89.6z M135.8,162.9c24-12.8,48.5-49.4,38.9-92c-9.1-40.5-46-69-87.9-67.8C46,4.3,10.8,35.4,4.2,76
		c-6.8,41.8,18.6,76.2,40,86.8c0-2.5,0-4.8,0-7.1c0.4-19.7,13.5-34.9,33-37c8.5-1,17.4-0.9,25.9,0c19.2,2.2,32.3,17.3,32.8,36.7
		C135.9,157.8,135.8,160.2,135.8,162.9z M80.6,121.4c-15.9,0.8-28.4,10.5-32,25.3c-1.1,4.6-0.8,9.6-1.4,14.3c-0.4,3.5,1,5.4,4.2,6.9
		c23.9,11.3,48,12.1,72.5,2.1c9.1-3.7,9.1-3.8,8.9-13.7c-0.3-16.8-10.3-30.2-25.8-33.7c-5.4-1.3-11.2-1.2-17-1.4"/>
	<path fill="#F8F8F8" d="M66.3,90.1c-0.1-13,10.9-23.9,23.8-23.8c12.8,0.1,23.5,10.7,23.6,23.6c0.1,13-10.9,23.9-23.8,23.8
		C77,113.6,66.3,102.9,66.3,90.1z M90.1,110.5c11.2-0.1,20.3-9.1,20.4-20.4c0.1-11.4-9.2-20.8-20.6-20.7
		c-11.2,0.1-20.3,9.2-20.4,20.4C69.3,101.2,78.7,110.5,90.1,110.5z"/>
</g>
</svg>
