<svg xmlns="http://www.w3.org/2000/svg" width="67" height="67.002" viewBox="0 0 67 67.002">
    <g id="pencil" transform="translate(410.32 109.335)">
        <g id="Group_855" data-name="Group 855" transform="translate(-410.32 -109.335)">
            <path id="Path_709" data-name="Path 709"
                  d="M66.071,9.5,57.5.936a3.2,3.2,0,0,0-4.525,0L36.851,17.063a1.034,1.034,0,0,0,1.462,1.463L54.442,2.4a1.132,1.132,0,0,1,1.6,0l8.566,8.566a1.132,1.132,0,0,1,0,1.6l-2.1,2.1L57,9.159a1.034,1.034,0,0,0-1.462,1.463l5.508,5.508-2.4,2.4L56.221,16.11a1.034,1.034,0,0,0-1.462,1.463l2.421,2.421-2.4,2.4-2.421-2.421a1.034,1.034,0,0,0-1.462,1.463l2.421,2.421-2.4,2.4-5.508-5.508a1.034,1.034,0,1,0-1.462,1.463l5.508,5.508-2.4,2.4L44.629,27.7a1.034,1.034,0,0,0-1.462,1.463l2.421,2.421-2.032,2.032L33.389,23.451,35.28,21.56A1.034,1.034,0,0,0,33.817,20.1l-1.891,1.891L12.851,2.913a7.024,7.024,0,0,0-9.934,9.934L21.992,31.922.942,52.973a3.2,3.2,0,0,0,0,4.526l8.566,8.566a3.2,3.2,0,0,0,4.525,0l21.05-21.05,1.5,1.5a1.034,1.034,0,0,0,1.462-1.463l-2.069-2.069a1.012,1.012,0,0,0-.322-.322L13.247,20.253l2.773-2.773,1.715,1.715A1.034,1.034,0,0,0,19.2,17.731l-1.714-1.714,2.773-2.773L31.194,24.181h0L42.723,35.711a.93.93,0,0,0,.2.2L58.271,51.259,55.5,54.032,40.015,38.549c-.009-.01-.018-.021-.027-.03l-6.174-6.174-.032-.029L22.875,21.409a1.034,1.034,0,0,0-1.462,1.463L54.035,55.494l-2.773,2.773L41.435,48.44A1.034,1.034,0,1,0,39.972,49.9L50.531,60.461a1.045,1.045,0,0,0,.357.233l12.494,4.851a1.678,1.678,0,0,0,2.171-2.172L60.7,50.884a1.046,1.046,0,0,0-.233-.357L45.018,35.08,66.071,14.027A3.2,3.2,0,0,0,66.071,9.5ZM33.622,43.552,31.593,45.58,29.172,43.16a1.034,1.034,0,1,0-1.462,1.463l2.421,2.421-2.4,2.4-5.508-5.508A1.034,1.034,0,0,0,20.758,45.4l5.508,5.508-2.4,2.4-2.421-2.421a1.034,1.034,0,0,0-1.462,1.463L22.4,54.771l-2.4,2.4L17.58,54.752a1.034,1.034,0,0,0-1.462,1.463l2.421,2.421-2.4,2.4-5.508-5.508a1.034,1.034,0,0,0-1.462,1.463L14.674,62.5l-2.1,2.1a1.132,1.132,0,0,1-1.6,0L2.405,56.036a1.133,1.133,0,0,1,0-1.6l21.05-21.05ZM4.379,11.385a4.956,4.956,0,1,1,7.009-7.009l3.268,3.268L7.648,14.653Zm10.911,3.9h0l-3.5,3.5L9.11,16.115l7.009-7.009,2.675,2.675ZM63.3,63.3,53.115,59.34l6.229-6.229Z"
                  transform="translate(-0.006 0)" fill="#fff"/>
        </g>
    </g>
</svg>