<svg xmlns="http://www.w3.org/2000/svg" width="67.341" height="67.205" viewBox="0 0 67.341 67.205">
    <g id="microphone" transform="translate(-1 -1.131)">
        <path id="Path_714" data-name="Path 714"
              d="M44.45,6.42a2.175,2.175,0,0,0-2.172,2.172v2.172H6.431A5.437,5.437,0,0,0,1,16.2v8.69a5.437,5.437,0,0,0,5.431,5.431h3.9L13.9,33.893A2.622,2.622,0,0,0,18.38,32.04V30.317h7.262a7.552,7.552,0,0,0-.744,3.259v7.6H20.552v5.431A11.963,11.963,0,0,0,32.5,58.56h1.086v7.6H24.9v2.172H44.45V66.163H35.76v-7.6h1.086A11.963,11.963,0,0,0,48.795,46.611V41.18H44.45v-7.6a7.552,7.552,0,0,0-.744-3.259h4a5.437,5.437,0,0,0,5.431-5.431V18.95L55.312,20.4V1.131L47.379,6.42Zm0,2.172h2.172v4.345H44.45ZM42.277,39.007H39.468L42.277,36.2Zm-12.4-6.517-1.723,1.723-1.045-1.045a5.383,5.383,0,0,1,.864-2.582Zm4.795-1.723L36.4,32.49l-1.723,1.723L32.951,32.49Zm-1.723,8.24,1.723-1.723L36.4,39.007Zm4.982-1.536-1.723-1.723,1.723-1.723,1.723,1.723Zm-4.795-1.723-1.723,1.723-1.723-1.723,1.723-1.723Zm-3.259,3.259H27.07V36.2ZM27.07,41.18H42.277v5.431a5.437,5.437,0,0,1-5.431,5.431H32.5a5.437,5.437,0,0,1-5.431-5.431Zm14.121-6.967L39.468,32.49l1.9-1.9a5.386,5.386,0,0,1,.864,2.582Zm-3.259-3.259-1.723-1.723,1.045-1.045a5.386,5.386,0,0,1,2.582.864Zm-6.517,0-1.9-1.9a5.4,5.4,0,0,1,2.99-.9h1.723Zm15.207,12.4v3.259a9.787,9.787,0,0,1-9.776,9.776H32.5a9.787,9.787,0,0,1-9.776-9.776V43.352H24.9v3.259a7.613,7.613,0,0,0,7.6,7.6h4.345a7.613,7.613,0,0,0,7.6-7.6V43.352Zm4.345-18.466a3.263,3.263,0,0,1-3.259,3.259H42.157a7.576,7.576,0,0,0-5.311-2.172H32.5a7.573,7.573,0,0,0-5.311,2.172H16.207v3.9a.467.467,0,0,1-.768.318l-4.214-4.214H6.431a3.263,3.263,0,0,1-3.259-3.259V16.2a3.263,3.263,0,0,1,3.259-3.259H42.277A2.175,2.175,0,0,0,44.45,15.11h2.93L50.967,17.5Zm2.172-8.548-4.345-2.9V8.086l4.345-2.9Z"
              transform="translate(0 0)" fill="#fff"/>
        <path id="Path_715" data-name="Path 715"
              d="M52.707,9.415a1.086,1.086,0,0,1,0,1.536l1.536,1.537a3.26,3.26,0,0,0,0-4.61Z"
              transform="translate(4.459 0.582)" fill="#fff"/>
        <path id="Path_716" data-name="Path 716"
              d="M57.071,5.05,55.535,6.586a5.431,5.431,0,0,1,0,7.682L57.071,15.8a7.6,7.6,0,0,0,0-10.754Z"
              transform="translate(4.703 0.338)" fill="#fff"/>
        <path id="Path_717" data-name="Path 717"
              d="M59.9,2.222,58.364,3.758a9.789,9.789,0,0,1,0,13.827L59.9,19.121a11.963,11.963,0,0,0,0-16.9Z"
              transform="translate(4.947 0.094)" fill="#fff"/>
        <path id="Path_718" data-name="Path 718"
              d="M10.259,16a3.259,3.259,0,1,0,3.259,3.259A3.263,3.263,0,0,0,10.259,16Zm0,4.345a1.086,1.086,0,1,1,1.086-1.086A1.087,1.087,0,0,1,10.259,20.345Z"
              transform="translate(0.517 1.282)" fill="#fff"/>
        <path id="Path_719" data-name="Path 719"
              d="M20.259,16a3.259,3.259,0,1,0,3.259,3.259A3.263,3.263,0,0,0,20.259,16Zm0,4.345a1.086,1.086,0,1,1,1.086-1.086A1.087,1.087,0,0,1,20.259,20.345Z"
              transform="translate(1.38 1.282)" fill="#fff"/>
        <path id="Path_720" data-name="Path 720"
              d="M30.259,16a3.259,3.259,0,1,0,3.259,3.259A3.263,3.263,0,0,0,30.259,16Zm0,4.345a1.086,1.086,0,1,1,1.086-1.086A1.087,1.087,0,0,1,30.259,20.345Z"
              transform="translate(2.242 1.282)" fill="#fff"/>
        <path id="Path_721" data-name="Path 721"
              d="M40.259,16a3.259,3.259,0,1,0,3.259,3.259A3.263,3.263,0,0,0,40.259,16Zm0,4.345a1.086,1.086,0,1,1,1.086-1.086A1.087,1.087,0,0,1,40.259,20.345Z"
              transform="translate(3.105 1.282)" fill="#fff"/>
        <path id="Path_722" data-name="Path 722"
              d="M32.259,46.517A3.259,3.259,0,1,0,29,43.259,3.263,3.263,0,0,0,32.259,46.517Zm0-4.345a1.086,1.086,0,1,1-1.086,1.086A1.087,1.087,0,0,1,32.259,42.172Z"
              transform="translate(2.415 3.352)" fill="#fff"/>
    </g>
</svg>