<svg id="wave" xmlns="http://www.w3.org/2000/svg" width="67.432" height="67.432"
     viewBox="0 0 67.432 67.432">
    <g id="Group_856" data-name="Group 856">
        <path id="Path_723" data-name="Path 723"
              d="M1.533,189.057A1.533,1.533,0,0,1,0,187.524V172.2a1.533,1.533,0,1,1,3.065,0v15.326A1.533,1.533,0,0,1,1.533,189.057Z"
              transform="translate(0 -146.145)" fill="#fff"/>
        <path id="Path_724" data-name="Path 724"
              d="M65.533,128.244A1.533,1.533,0,0,1,64,126.712V86.866a1.533,1.533,0,1,1,3.065,0v39.846A1.533,1.533,0,0,1,65.533,128.244Z"
              transform="translate(-54.805 -73.073)" fill="#fff"/>
        <path id="Path_725" data-name="Path 725"
              d="M129.533,67.432A1.533,1.533,0,0,1,128,65.9V1.532a1.533,1.533,0,0,1,3.065,0V65.9A1.533,1.533,0,0,1,129.533,67.432Z"
              transform="translate(-109.609)" fill="#fff"/>
        <path id="Path_726" data-name="Path 726"
              d="M193.533,82.635A1.533,1.533,0,0,1,192,81.1V22.866a1.533,1.533,0,1,1,3.065,0V81.1A1.533,1.533,0,0,1,193.533,82.635Z"
              transform="translate(-164.414 -18.268)" fill="#fff"/>
        <path id="Path_727" data-name="Path 727"
              d="M257.533,143.447A1.533,1.533,0,0,1,256,141.915V108.2a1.533,1.533,0,1,1,3.065,0v33.716A1.533,1.533,0,0,1,257.533,143.447Z"
              transform="translate(-219.219 -91.341)" fill="#fff"/>
        <path id="Path_728" data-name="Path 728"
              d="M321.533,82.635A1.533,1.533,0,0,1,320,81.1V22.866a1.533,1.533,0,0,1,3.065,0V81.1A1.533,1.533,0,0,1,321.533,82.635Z"
              transform="translate(-274.024 -18.268)" fill="#fff"/>
        <path id="Path_729" data-name="Path 729"
              d="M385.533,143.447A1.533,1.533,0,0,1,384,141.915V108.2a1.533,1.533,0,1,1,3.065,0v33.716A1.533,1.533,0,0,1,385.533,143.447Z"
              transform="translate(-328.828 -91.341)" fill="#fff"/>
        <path id="Path_730" data-name="Path 730"
              d="M449.533,189.057A1.533,1.533,0,0,1,448,187.524V172.2a1.533,1.533,0,1,1,3.065,0v15.326A1.533,1.533,0,0,1,449.533,189.057Z"
              transform="translate(-383.633 -146.145)" fill="#fff"/>
    </g>
    <path id="Path_731" data-name="Path 731"
          d="M1.533,189.057A1.533,1.533,0,0,1,0,187.524V172.2a1.533,1.533,0,1,1,3.065,0v15.326A1.533,1.533,0,0,1,1.533,189.057Z"
          transform="translate(0 -146.145)" fill="#fff"/>
    <path id="Path_732" data-name="Path 732"
          d="M65.533,128.244A1.533,1.533,0,0,1,64,126.712V86.866a1.533,1.533,0,1,1,3.065,0v39.846A1.533,1.533,0,0,1,65.533,128.244Z"
          transform="translate(-54.805 -73.073)" fill="#fff"/>
    <path id="Path_733" data-name="Path 733"
          d="M129.533,67.432A1.533,1.533,0,0,1,128,65.9V1.532a1.533,1.533,0,0,1,3.065,0V65.9A1.533,1.533,0,0,1,129.533,67.432Z"
          transform="translate(-109.609)" fill="#fff"/>
    <path id="Path_734" data-name="Path 734"
          d="M193.533,82.635A1.533,1.533,0,0,1,192,81.1V22.866a1.533,1.533,0,1,1,3.065,0V81.1A1.533,1.533,0,0,1,193.533,82.635Z"
          transform="translate(-164.414 -18.268)" fill="#fff"/>
    <path id="Path_735" data-name="Path 735"
          d="M257.533,143.447A1.533,1.533,0,0,1,256,141.915V108.2a1.533,1.533,0,1,1,3.065,0v33.716A1.533,1.533,0,0,1,257.533,143.447Z"
          transform="translate(-219.219 -91.341)" fill="#fff"/>
    <path id="Path_736" data-name="Path 736"
          d="M321.533,82.635A1.533,1.533,0,0,1,320,81.1V22.866a1.533,1.533,0,0,1,3.065,0V81.1A1.533,1.533,0,0,1,321.533,82.635Z"
          transform="translate(-274.024 -18.268)" fill="#fff"/>
    <path id="Path_737" data-name="Path 737"
          d="M385.533,143.447A1.533,1.533,0,0,1,384,141.915V108.2a1.533,1.533,0,1,1,3.065,0v33.716A1.533,1.533,0,0,1,385.533,143.447Z"
          transform="translate(-328.828 -91.341)" fill="#fff"/>
    <path id="Path_738" data-name="Path 738"
          d="M449.533,189.057A1.533,1.533,0,0,1,448,187.524V172.2a1.533,1.533,0,1,1,3.065,0v15.326A1.533,1.533,0,0,1,449.533,189.057Z"
          transform="translate(-383.633 -146.145)" fill="#fff"/>
</svg>