<svg id="class" xmlns="http://www.w3.org/2000/svg" width="67.018" height="65.33"
     viewBox="0 0 67.018 65.33">
    <path id="Path_654" data-name="Path 654"
          d="M195.81,31.372h-.4V29.919a2.274,2.274,0,0,1,.839-1.769,4.228,4.228,0,0,0,1.561-3.288V11.376a2.8,2.8,0,0,0-3.631-2.669V4.876a2.791,2.791,0,0,0-3.825-2.6,2.792,2.792,0,0,0-5.2,0,2.789,2.789,0,0,0-3.777,2.092A2.79,2.79,0,0,0,177.7,7.022V17.5a.98.98,0,1,0,1.961,0V7.022a.835.835,0,0,1,1.669,0v7.795a.981.981,0,1,0,1.961,0V4.876a.835.835,0,1,1,1.669,0v9.94a.98.98,0,1,0,1.961,0V3.3a.835.835,0,1,1,1.67,0V14.816a.98.98,0,1,0,1.961,0V4.876a.835.835,0,1,1,1.669,0V17.953a1.388,1.388,0,0,1-.869,1.291l-2.362.96a2.97,2.97,0,0,0-1.86,2.763v.878a.981.981,0,0,0,1.961,0v-.878a1.017,1.017,0,0,1,.637-.946l2.363-.96a3.34,3.34,0,0,0,2.092-3.107V11.376a.835.835,0,1,1,1.669,0V24.862a2.273,2.273,0,0,1-.84,1.769,4.228,4.228,0,0,0-1.56,3.288v1.453H181.931V29.866a4.245,4.245,0,0,0-1.481-3.222,2.28,2.28,0,0,1-.793-1.73V21.857a.981.981,0,1,0-1.961,0v3.058a4.245,4.245,0,0,0,1.482,3.222,2.28,2.28,0,0,1,.793,1.73v1.511a2.386,2.386,0,0,0-2.275,2.379V64.849a.981.981,0,1,0,1.961,0V41.1h16.577V64.849a.981.981,0,0,0,1.961,0V33.757a2.388,2.388,0,0,0-2.386-2.385Zm-16.154,7.771V33.757a.425.425,0,0,1,.424-.424h15.73a.425.425,0,0,1,.424.424v5.386Zm0,0"
          transform="translate(-154.436 -0.5)" fill="#182b51"/>
    <path id="Path_655" data-name="Path 655"
          d="M373.5,157.08h-.4v-1.453a2.273,2.273,0,0,1,.84-1.769,4.229,4.229,0,0,0,1.561-3.288V137.084a2.8,2.8,0,0,0-3.631-2.669v-3.832a2.791,2.791,0,0,0-3.825-2.6,2.792,2.792,0,0,0-5.2,0,2.788,2.788,0,0,0-3.776,2.092,2.79,2.79,0,0,0-3.679,2.651v17.893a4.235,4.235,0,0,0,1.468,3.21l.013.012a2.28,2.28,0,0,1,.793,1.73v1.511a2.386,2.386,0,0,0-2.275,2.38V174.1a.981.981,0,0,0,1.961,0v-7.291h16.577V174.1a.981.981,0,1,0,1.961,0V159.465a2.388,2.388,0,0,0-2.385-2.385Zm-16.154,7.771v-5.386a.425.425,0,0,1,.424-.424h7.865a.98.98,0,1,0,0-1.961h-6.014v-1.506a4.233,4.233,0,0,0-1.469-3.21l-.013-.012a2.279,2.279,0,0,1-.794-1.73V132.73a.835.835,0,1,1,1.669,0v7.795a.981.981,0,1,0,1.961,0v-9.941a.835.835,0,0,1,1.669,0v9.941a.981.981,0,0,0,1.961,0V129a.835.835,0,1,1,1.669,0v11.521a.98.98,0,1,0,1.961,0v-9.941a.835.835,0,0,1,1.67,0v13.077a1.388,1.388,0,0,1-.869,1.291l-2.362.96a2.969,2.969,0,0,0-1.86,2.763v.878a.981.981,0,0,0,1.961,0v-.878a1.017,1.017,0,0,1,.637-.946l2.363-.96a3.341,3.341,0,0,0,2.092-3.107v-6.576a.835.835,0,1,1,1.669,0v13.486a2.274,2.274,0,0,1-.84,1.769,4.227,4.227,0,0,0-1.56,3.288v1.453h-1.351a.98.98,0,0,0,0,1.961H373.5a.425.425,0,0,1,.424.424v5.386Zm0,0"
          transform="translate(-308.865 -109.753)" fill="#182b51"/>
    <path id="Path_656" data-name="Path 656"
          d="M18.115,157.08h-.4v-1.453a2.273,2.273,0,0,1,.84-1.769,4.227,4.227,0,0,0,1.561-3.288V137.084a2.8,2.8,0,0,0-3.63-2.669v-3.832a2.791,2.791,0,0,0-3.825-2.6,2.792,2.792,0,0,0-5.2,0,2.789,2.789,0,0,0-3.777,2.092,2.77,2.77,0,0,0-.883-.145,2.8,2.8,0,0,0-2.8,2.8v17.893a4.233,4.233,0,0,0,1.468,3.21l.013.012a2.281,2.281,0,0,1,.794,1.73v1.511A2.386,2.386,0,0,0,0,159.465V174.1a.98.98,0,1,0,1.961,0v-7.291h1.48a.98.98,0,1,0,0-1.961H1.961v-5.387a.424.424,0,0,1,.424-.424h15.73a.424.424,0,0,1,.424.424v5.387H7.276a.98.98,0,1,0,0,1.961H18.539V174.1a.98.98,0,1,0,1.961,0V159.465a2.387,2.387,0,0,0-2.385-2.385Zm-13.879,0v-1.506a4.233,4.233,0,0,0-1.468-3.21l-.013-.012a2.281,2.281,0,0,1-.794-1.73V132.73a.835.835,0,1,1,1.67,0v7.795a.98.98,0,1,0,1.961,0v-9.941a.835.835,0,0,1,1.669,0v9.941a.981.981,0,1,0,1.961,0V129a.835.835,0,1,1,1.669,0v11.521a.98.98,0,1,0,1.961,0v-9.941a.835.835,0,0,1,1.67,0v13.077a1.388,1.388,0,0,1-.869,1.291l-2.363.96a2.97,2.97,0,0,0-1.86,2.763v.878a.98.98,0,1,0,1.961,0v-.878a1.017,1.017,0,0,1,.637-.946l2.363-.96a3.341,3.341,0,0,0,2.092-3.107v-6.576a.835.835,0,1,1,1.669,0v13.486a2.275,2.275,0,0,1-.839,1.769,4.227,4.227,0,0,0-1.561,3.288v1.453Zm0,0"
          transform="translate(0 -109.753)" fill="#182b51"/>
</svg>