<svg id="building" xmlns="http://www.w3.org/2000/svg" width="54.761" height="54.761"
     viewBox="0 0 54.761 54.761">
    <g id="Group_696" data-name="Group 696" transform="translate(0 0)">
        <g id="Group_695" data-name="Group 695" transform="translate(0 0)">
            <path id="Path_643" data-name="Path 643"
                  d="M52.848,48.285H50.11V-.087A.862.862,0,0,0,49.2-1H3.563a.862.862,0,0,0-.913.913V48.285H-.087A.862.862,0,0,0-1,49.2v3.651a.862.862,0,0,0,.913.913H52.848a.862.862,0,0,0,.913-.913V49.2A.862.862,0,0,0,52.848,48.285ZM4.476.825H48.285V48.285H34.595V38.245a.862.862,0,0,0-.913-.913h-14.6a.862.862,0,0,0-.913.913v10.04H4.476ZM19.992,48.285V39.158h5.476v9.127Zm7.3-9.127h5.476v9.127H27.293ZM51.936,51.936H.825V50.11h51.11v1.825Z"
                  transform="translate(1 1)" fill="#182b51"/>
            <path id="Path_644" data-name="Path 644"
                  d="M91.149,40.967h-7.3a.862.862,0,0,0-.913.913v5.476a.862.862,0,0,0,.913.913h7.3a.862.862,0,0,0,.913-.913V41.88A.862.862,0,0,0,91.149,40.967Zm-.913,5.476H84.76V42.792h5.476Z"
                  transform="translate(-73.808 -36.404)" fill="#182b51"/>
            <path id="Path_645" data-name="Path 645"
                  d="M91.149,133.3h-7.3a.862.862,0,0,0-.913.913v5.476a.862.862,0,0,0,.913.913h7.3a.862.862,0,0,0,.913-.913v-5.476A.862.862,0,0,0,91.149,133.3Zm-.913,5.476H84.76V135.12h5.476Z"
                  transform="translate(-73.808 -118.692)" fill="#182b51"/>
            <path id="Path_646" data-name="Path 646"
                  d="M209.749,140.6h7.3a.862.862,0,0,0,.913-.913v-5.476a.862.862,0,0,0-.913-.913h-7.3a.862.862,0,0,0-.913.913v5.476A.862.862,0,0,0,209.749,140.6Zm.913-5.476h5.476v3.651h-5.476Z"
                  transform="translate(-186.019 -118.693)" fill="#182b51"/>
            <path id="Path_647" data-name="Path 647"
                  d="M335.651,140.6h7.3a.862.862,0,0,0,.913-.913v-5.476a.862.862,0,0,0-.913-.913h-7.3a.862.862,0,0,0-.913.913v5.476A.862.862,0,0,0,335.651,140.6Zm.913-5.476h5.476v3.651h-5.476Z"
                  transform="translate(-298.231 -118.693)" fill="#182b51"/>
            <path id="Path_648" data-name="Path 648"
                  d="M209.749,232.925h7.3a.862.862,0,0,0,.913-.913v-5.476a.862.862,0,0,0-.913-.913h-7.3a.862.862,0,0,0-.913.913v5.476A.862.862,0,0,0,209.749,232.925Zm.913-5.476h5.476V231.1h-5.476Z"
                  transform="translate(-186.019 -200.982)" fill="#182b51"/>
            <path id="Path_649" data-name="Path 649"
                  d="M335.651,232.925h7.3a.862.862,0,0,0,.913-.913v-5.476a.862.862,0,0,0-.913-.913h-7.3a.862.862,0,0,0-.913.913v5.476A.862.862,0,0,0,335.651,232.925Zm.913-5.476h5.476V231.1h-5.476Z"
                  transform="translate(-298.231 -200.982)" fill="#182b51"/>
            <path id="Path_650" data-name="Path 650"
                  d="M91.149,225.623h-7.3a.862.862,0,0,0-.913.913v5.476a.862.862,0,0,0,.913.913h7.3a.862.862,0,0,0,.913-.913v-5.476A.862.862,0,0,0,91.149,225.623Zm-.913,5.476H84.76v-3.651h5.476Z"
                  transform="translate(-73.808 -200.981)" fill="#182b51"/>
            <path id="Path_651" data-name="Path 651"
                  d="M209.749,48.269h7.3a.862.862,0,0,0,.913-.913V41.881a.862.862,0,0,0-.913-.913h-7.3a.862.862,0,0,0-.913.913v5.476A.862.862,0,0,0,209.749,48.269Zm.913-5.476h5.476v3.651h-5.476Z"
                  transform="translate(-186.019 -36.405)" fill="#182b51"/>
            <path id="Path_652" data-name="Path 652"
                  d="M335.651,48.269h7.3a.862.862,0,0,0,.913-.913V41.881a.862.862,0,0,0-.913-.913h-7.3a.862.862,0,0,0-.913.913v5.476A.862.862,0,0,0,335.651,48.269Zm.913-5.476h5.476v3.651h-5.476Z"
                  transform="translate(-298.231 -36.405)" fill="#182b51"/>
            <path id="Path_653" data-name="Path 653"
                  d="M192.963,319.777h10.952a.913.913,0,1,0,0-1.825H192.963a.913.913,0,1,0,0,1.825Z"
                  transform="translate(-171.058 -283.27)" fill="#182b51"/>
        </g>
    </g>
</svg>