<svg id="hotel" xmlns="http://www.w3.org/2000/svg" width="58.495" height="57.52"
     viewBox="0 0 58.495 57.52">
    <g id="Group_699" data-name="Group 699" transform="translate(0 0)">
        <g id="Group_698" data-name="Group 698">
            <path id="Path_665" data-name="Path 665"
                  d="M57.52,12.774H46.8v-7.8A.975.975,0,0,0,45.821,4H12.674a.975.975,0,0,0-.975.975V18.624H.975A.975.975,0,0,0,0,19.6V59.571a.975.975,0,0,0,1.95,0v-39H11.7V60.546a.975.975,0,0,0,.975.975H45.821a.975.975,0,0,0,.975-.975V14.724h9.749V59.571a.975.975,0,1,0,1.95,0V13.749A.975.975,0,0,0,57.52,12.774Zm-29.248,46.8h-3.9V50.8h3.9Zm5.85,0h-3.9V50.8h3.9Zm10.724,0H36.072V49.821a.975.975,0,0,0-.975-.975H23.4a.975.975,0,0,0-.975.975v9.749H13.649V5.95h31.2Z"
                  transform="translate(0 -4)" fill="#182b51"/>
        </g>
    </g>
    <g id="Group_701" data-name="Group 701" transform="translate(15.599 3.9)">
        <g id="Group_700" data-name="Group 700">
            <path id="Path_666" data-name="Path 666"
                  d="M134.824,36h-5.85a.975.975,0,0,0-.975.975v5.85a.975.975,0,0,0,.975.975h5.85a.975.975,0,0,0,.975-.975v-5.85A.975.975,0,0,0,134.824,36Zm-.975,5.85h-3.9v-3.9h3.9Z"
                  transform="translate(-128 -36)" fill="#182b51"/>
        </g>
    </g>
    <g id="Group_703" data-name="Group 703" transform="translate(25.348 3.9)">
        <g id="Group_702" data-name="Group 702">
            <path id="Path_667" data-name="Path 667"
                  d="M214.824,36h-5.85a.975.975,0,0,0-.975.975v5.85a.975.975,0,0,0,.975.975h5.85a.975.975,0,0,0,.975-.975v-5.85A.975.975,0,0,0,214.824,36Zm-.975,5.85h-3.9v-3.9h3.9Z"
                  transform="translate(-208 -36)" fill="#182b51"/>
        </g>
    </g>
    <g id="Group_705" data-name="Group 705" transform="translate(35.097 3.9)">
        <g id="Group_704" data-name="Group 704">
            <path id="Path_668" data-name="Path 668"
                  d="M294.825,36h-5.85a.975.975,0,0,0-.975.975v5.85a.975.975,0,0,0,.975.975h5.85a.975.975,0,0,0,.975-.975v-5.85A.975.975,0,0,0,294.825,36Zm-.975,5.85h-3.9v-3.9h3.9Z"
                  transform="translate(-288 -36)" fill="#182b51"/>
        </g>
    </g>
    <g id="Group_707" data-name="Group 707" transform="translate(15.599 13.649)">
        <g id="Group_706" data-name="Group 706">
            <path id="Path_669" data-name="Path 669"
                  d="M134.824,116h-5.85a.975.975,0,0,0-.975.975v5.85a.975.975,0,0,0,.975.975h5.85a.975.975,0,0,0,.975-.975v-5.85A.975.975,0,0,0,134.824,116Zm-.975,5.85h-3.9v-3.9h3.9Z"
                  transform="translate(-128 -116)" fill="#182b51"/>
        </g>
    </g>
    <g id="Group_709" data-name="Group 709" transform="translate(25.348 13.649)">
        <g id="Group_708" data-name="Group 708">
            <path id="Path_670" data-name="Path 670"
                  d="M214.824,116h-5.85a.975.975,0,0,0-.975.975v5.85a.975.975,0,0,0,.975.975h5.85a.975.975,0,0,0,.975-.975v-5.85A.975.975,0,0,0,214.824,116Zm-.975,5.85h-3.9v-3.9h3.9Z"
                  transform="translate(-208 -116)" fill="#182b51"/>
        </g>
    </g>
    <g id="Group_711" data-name="Group 711" transform="translate(35.097 13.649)">
        <g id="Group_710" data-name="Group 710">
            <path id="Path_671" data-name="Path 671"
                  d="M294.825,116h-5.85a.975.975,0,0,0-.975.975v5.85a.975.975,0,0,0,.975.975h5.85a.975.975,0,0,0,.975-.975v-5.85A.975.975,0,0,0,294.825,116Zm-.975,5.85h-3.9v-3.9h3.9Z"
                  transform="translate(-288 -116)" fill="#182b51"/>
        </g>
    </g>
    <g id="Group_713" data-name="Group 713" transform="translate(15.599 23.398)">
        <g id="Group_712" data-name="Group 712">
            <path id="Path_672" data-name="Path 672"
                  d="M134.824,196h-5.85a.975.975,0,0,0-.975.975v5.85a.975.975,0,0,0,.975.975h5.85a.975.975,0,0,0,.975-.975v-5.85A.975.975,0,0,0,134.824,196Zm-.975,5.85h-3.9v-3.9h3.9Z"
                  transform="translate(-128 -196)" fill="#182b51"/>
        </g>
    </g>
    <g id="Group_715" data-name="Group 715" transform="translate(25.348 23.398)">
        <g id="Group_714" data-name="Group 714">
            <path id="Path_673" data-name="Path 673"
                  d="M214.824,196h-5.85a.975.975,0,0,0-.975.975v5.85a.975.975,0,0,0,.975.975h5.85a.975.975,0,0,0,.975-.975v-5.85A.975.975,0,0,0,214.824,196Zm-.975,5.85h-3.9v-3.9h3.9Z"
                  transform="translate(-208 -196)" fill="#182b51"/>
        </g>
    </g>
    <g id="Group_717" data-name="Group 717" transform="translate(35.097 23.398)">
        <g id="Group_716" data-name="Group 716">
            <path id="Path_674" data-name="Path 674"
                  d="M294.825,196h-5.85a.975.975,0,0,0-.975.975v5.85a.975.975,0,0,0,.975.975h5.85a.975.975,0,0,0,.975-.975v-5.85A.975.975,0,0,0,294.825,196Zm-.975,5.85h-3.9v-3.9h3.9Z"
                  transform="translate(-288 -196)" fill="#182b51"/>
        </g>
    </g>
    <g id="Group_719" data-name="Group 719" transform="translate(15.599 33.147)">
        <g id="Group_718" data-name="Group 718" transform="translate(0 0)">
            <path id="Path_675" data-name="Path 675"
                  d="M134.824,276h-5.85a.975.975,0,0,0-.975.975v5.85a.975.975,0,0,0,.975.975h5.85a.975.975,0,0,0,.975-.975v-5.85A.975.975,0,0,0,134.824,276Zm-.975,5.85h-3.9v-3.9h3.9Z"
                  transform="translate(-128 -276)" fill="#182b51"/>
        </g>
    </g>
    <g id="Group_721" data-name="Group 721" transform="translate(25.348 33.147)">
        <g id="Group_720" data-name="Group 720" transform="translate(0 0)">
            <path id="Path_676" data-name="Path 676"
                  d="M214.824,276h-5.85a.975.975,0,0,0-.975.975v5.85a.975.975,0,0,0,.975.975h5.85a.975.975,0,0,0,.975-.975v-5.85A.975.975,0,0,0,214.824,276Zm-.975,5.85h-3.9v-3.9h3.9Z"
                  transform="translate(-208 -276)" fill="#182b51"/>
        </g>
    </g>
    <g id="Group_723" data-name="Group 723" transform="translate(35.097 33.147)">
        <g id="Group_722" data-name="Group 722" transform="translate(0 0)">
            <path id="Path_677" data-name="Path 677"
                  d="M294.825,276h-5.85a.975.975,0,0,0-.975.975v5.85a.975.975,0,0,0,.975.975h5.85a.975.975,0,0,0,.975-.975v-5.85A.975.975,0,0,0,294.825,276Zm-.975,5.85h-3.9v-3.9h3.9Z"
                  transform="translate(-288 -276)" fill="#182b51"/>
        </g>
    </g>
    <g id="Group_725" data-name="Group 725" transform="translate(3.9 18.524)">
        <g id="Group_724" data-name="Group 724">
            <path id="Path_678" data-name="Path 678"
                  d="M33.95,156h-.975a.975.975,0,0,0-.975.975v.975a.975.975,0,0,0,.975.975h.975a.975.975,0,0,0,.975-.975v-.975A.975.975,0,0,0,33.95,156Z"
                  transform="translate(-32 -156)" fill="#182b51"/>
        </g>
    </g>
    <g id="Group_727" data-name="Group 727" transform="translate(7.799 18.524)">
        <g id="Group_726" data-name="Group 726">
            <path id="Path_679" data-name="Path 679"
                  d="M65.95,156h-.975a.975.975,0,0,0-.975.975v.975a.975.975,0,0,0,.975.975h.975a.975.975,0,0,0,.975-.975v-.975A.975.975,0,0,0,65.95,156Z"
                  transform="translate(-64 -156)" fill="#182b51"/>
        </g>
    </g>
    <g id="Group_729" data-name="Group 729" transform="translate(3.9 22.423)">
        <g id="Group_728" data-name="Group 728">
            <path id="Path_680" data-name="Path 680"
                  d="M33.95,188h-.975a.975.975,0,0,0-.975.975v.975a.975.975,0,0,0,.975.975h.975a.975.975,0,0,0,.975-.975v-.975A.975.975,0,0,0,33.95,188Z"
                  transform="translate(-32 -188)" fill="#182b51"/>
        </g>
    </g>
    <g id="Group_731" data-name="Group 731" transform="translate(7.799 22.423)">
        <g id="Group_730" data-name="Group 730">
            <path id="Path_681" data-name="Path 681"
                  d="M65.95,188h-.975a.975.975,0,0,0-.975.975v.975a.975.975,0,0,0,.975.975h.975a.975.975,0,0,0,.975-.975v-.975A.975.975,0,0,0,65.95,188Z"
                  transform="translate(-64 -188)" fill="#182b51"/>
        </g>
    </g>
    <g id="Group_733" data-name="Group 733" transform="translate(3.9 26.323)">
        <g id="Group_732" data-name="Group 732">
            <path id="Path_682" data-name="Path 682"
                  d="M33.95,220h-.975a.975.975,0,0,0-.975.975v.975a.975.975,0,0,0,.975.975h.975a.975.975,0,0,0,.975-.975v-.975A.975.975,0,0,0,33.95,220Z"
                  transform="translate(-32 -220)" fill="#182b51"/>
        </g>
    </g>
    <g id="Group_735" data-name="Group 735" transform="translate(7.799 26.323)">
        <g id="Group_734" data-name="Group 734">
            <path id="Path_683" data-name="Path 683"
                  d="M65.95,220h-.975a.975.975,0,0,0-.975.975v.975a.975.975,0,0,0,.975.975h.975a.975.975,0,0,0,.975-.975v-.975A.975.975,0,0,0,65.95,220Z"
                  transform="translate(-64 -220)" fill="#182b51"/>
        </g>
    </g>
    <g id="Group_737" data-name="Group 737" transform="translate(3.9 30.223)">
        <g id="Group_736" data-name="Group 736">
            <path id="Path_684" data-name="Path 684"
                  d="M33.95,252h-.975a.975.975,0,0,0-.975.975v.975a.975.975,0,0,0,.975.975h.975a.975.975,0,0,0,.975-.975v-.975A.975.975,0,0,0,33.95,252Z"
                  transform="translate(-32 -252)" fill="#182b51"/>
        </g>
    </g>
    <g id="Group_739" data-name="Group 739" transform="translate(7.799 30.223)">
        <g id="Group_738" data-name="Group 738">
            <path id="Path_685" data-name="Path 685"
                  d="M65.95,252h-.975a.975.975,0,0,0-.975.975v.975a.975.975,0,0,0,.975.975h.975a.975.975,0,0,0,.975-.975v-.975A.975.975,0,0,0,65.95,252Z"
                  transform="translate(-64 -252)" fill="#182b51"/>
        </g>
    </g>
    <g id="Group_741" data-name="Group 741" transform="translate(3.9 34.122)">
        <g id="Group_740" data-name="Group 740">
            <path id="Path_686" data-name="Path 686"
                  d="M33.95,284h-.975a.975.975,0,0,0-.975.975v.975a.975.975,0,0,0,.975.975h.975a.975.975,0,0,0,.975-.975v-.975A.975.975,0,0,0,33.95,284Z"
                  transform="translate(-32 -284)" fill="#182b51"/>
        </g>
    </g>
    <g id="Group_743" data-name="Group 743" transform="translate(7.799 34.122)">
        <g id="Group_742" data-name="Group 742">
            <path id="Path_687" data-name="Path 687"
                  d="M65.95,284h-.975a.975.975,0,0,0-.975.975v.975a.975.975,0,0,0,.975.975h.975a.975.975,0,0,0,.975-.975v-.975A.975.975,0,0,0,65.95,284Z"
                  transform="translate(-64 -284)" fill="#182b51"/>
        </g>
    </g>
    <g id="Group_745" data-name="Group 745" transform="translate(3.9 38.022)">
        <g id="Group_744" data-name="Group 744">
            <path id="Path_688" data-name="Path 688"
                  d="M33.95,316h-.975a.975.975,0,0,0-.975.975v.975a.975.975,0,0,0,.975.975h.975a.975.975,0,0,0,.975-.975v-.975A.975.975,0,0,0,33.95,316Z"
                  transform="translate(-32 -316)" fill="#182b51"/>
        </g>
    </g>
    <g id="Group_747" data-name="Group 747" transform="translate(7.799 38.022)">
        <g id="Group_746" data-name="Group 746">
            <path id="Path_689" data-name="Path 689"
                  d="M65.95,316h-.975a.975.975,0,0,0-.975.975v.975a.975.975,0,0,0,.975.975h.975a.975.975,0,0,0,.975-.975v-.975A.975.975,0,0,0,65.95,316Z"
                  transform="translate(-64 -316)" fill="#182b51"/>
        </g>
    </g>
    <g id="Group_749" data-name="Group 749" transform="translate(3.9 41.922)">
        <g id="Group_748" data-name="Group 748">
            <path id="Path_690" data-name="Path 690"
                  d="M33.95,348h-.975a.975.975,0,0,0-.975.975v.975a.975.975,0,0,0,.975.975h.975a.975.975,0,0,0,.975-.975v-.975A.975.975,0,0,0,33.95,348Z"
                  transform="translate(-32 -348)" fill="#182b51"/>
        </g>
    </g>
    <g id="Group_751" data-name="Group 751" transform="translate(7.799 41.922)">
        <g id="Group_750" data-name="Group 750">
            <path id="Path_691" data-name="Path 691"
                  d="M65.95,348h-.975a.975.975,0,0,0-.975.975v.975a.975.975,0,0,0,.975.975h.975a.975.975,0,0,0,.975-.975v-.975A.975.975,0,0,0,65.95,348Z"
                  transform="translate(-64 -348)" fill="#182b51"/>
        </g>
    </g>
    <g id="Group_753" data-name="Group 753" transform="translate(3.9 45.821)">
        <g id="Group_752" data-name="Group 752">
            <path id="Path_692" data-name="Path 692"
                  d="M33.95,380h-.975a.975.975,0,0,0-.975.975v.975a.975.975,0,0,0,.975.975h.975a.975.975,0,0,0,.975-.975v-.975A.975.975,0,0,0,33.95,380Z"
                  transform="translate(-32 -380)" fill="#182b51"/>
        </g>
    </g>
    <g id="Group_755" data-name="Group 755" transform="translate(7.799 45.821)">
        <g id="Group_754" data-name="Group 754">
            <path id="Path_693" data-name="Path 693"
                  d="M65.95,380h-.975a.975.975,0,0,0-.975.975v.975a.975.975,0,0,0,.975.975h.975a.975.975,0,0,0,.975-.975v-.975A.975.975,0,0,0,65.95,380Z"
                  transform="translate(-64 -380)" fill="#182b51"/>
        </g>
    </g>
    <g id="Group_757" data-name="Group 757" transform="translate(3.9 49.721)">
        <g id="Group_756" data-name="Group 756">
            <path id="Path_694" data-name="Path 694"
                  d="M33.95,412h-.975a.975.975,0,0,0-.975.975v.975a.975.975,0,0,0,.975.975h.975a.975.975,0,0,0,.975-.975v-.975A.975.975,0,0,0,33.95,412Z"
                  transform="translate(-32 -412)" fill="#182b51"/>
        </g>
    </g>
    <g id="Group_759" data-name="Group 759" transform="translate(7.799 49.721)">
        <g id="Group_758" data-name="Group 758">
            <path id="Path_695" data-name="Path 695"
                  d="M65.95,412h-.975a.975.975,0,0,0-.975.975v.975a.975.975,0,0,0,.975.975h.975a.975.975,0,0,0,.975-.975v-.975A.975.975,0,0,0,65.95,412Z"
                  transform="translate(-64 -412)" fill="#182b51"/>
        </g>
    </g>
    <g id="Group_761" data-name="Group 761" transform="translate(48.746 12.674)">
        <g id="Group_760" data-name="Group 760">
            <path id="Path_696" data-name="Path 696"
                  d="M404.875,108h-3.9a.975.975,0,0,0-.975.975v3.9a.975.975,0,0,0,.975.975h3.9a.975.975,0,0,0,.975-.975v-3.9A.975.975,0,0,0,404.875,108Zm-.975,3.9h-1.95v-1.95h1.95Z"
                  transform="translate(-400 -108)" fill="#182b51"/>
        </g>
    </g>
    <g id="Group_763" data-name="Group 763" transform="translate(48.746 20.473)">
        <g id="Group_762" data-name="Group 762">
            <path id="Path_697" data-name="Path 697"
                  d="M404.875,172h-3.9a.975.975,0,0,0-.975.975v3.9a.975.975,0,0,0,.975.975h3.9a.975.975,0,0,0,.975-.975v-3.9A.975.975,0,0,0,404.875,172Zm-.975,3.9h-1.95v-1.95h1.95Z"
                  transform="translate(-400 -172)" fill="#182b51"/>
        </g>
    </g>
    <g id="Group_765" data-name="Group 765" transform="translate(48.746 28.273)">
        <g id="Group_764" data-name="Group 764">
            <path id="Path_698" data-name="Path 698"
                  d="M404.875,236h-3.9a.975.975,0,0,0-.975.975v3.9a.975.975,0,0,0,.975.975h3.9a.975.975,0,0,0,.975-.975v-3.9A.975.975,0,0,0,404.875,236Zm-.975,3.9h-1.95v-1.95h1.95Z"
                  transform="translate(-400 -236)" fill="#182b51"/>
        </g>
    </g>
    <g id="Group_767" data-name="Group 767" transform="translate(48.746 36.072)">
        <g id="Group_766" data-name="Group 766">
            <path id="Path_699" data-name="Path 699"
                  d="M404.875,300h-3.9a.975.975,0,0,0-.975.975v3.9a.975.975,0,0,0,.975.975h3.9a.975.975,0,0,0,.975-.975v-3.9A.975.975,0,0,0,404.875,300Zm-.975,3.9h-1.95v-1.95h1.95Z"
                  transform="translate(-400 -300)" fill="#182b51"/>
        </g>
    </g>
    <g id="Group_769" data-name="Group 769" transform="translate(48.746 43.872)">
        <g id="Group_768" data-name="Group 768">
            <path id="Path_700" data-name="Path 700"
                  d="M404.875,364h-3.9a.975.975,0,0,0-.975.975v3.9a.975.975,0,0,0,.975.975h3.9a.975.975,0,0,0,.975-.975v-3.9A.975.975,0,0,0,404.875,364Zm-.975,3.9h-1.95v-1.95h1.95Z"
                  transform="translate(-400 -364)" fill="#182b51"/>
        </g>
    </g>
</svg>