<svg id="bullhorn" xmlns="http://www.w3.org/2000/svg" width="56.567" height="56.573"
     viewBox="0 0 56.567 56.573">
    <path id="Path_658" data-name="Path 658"
          d="M98.027,265.226a1.105,1.105,0,1,0-.781-.324A1.113,1.113,0,0,0,98.027,265.226Zm0,0"
          transform="translate(-86.213 -233.954)" fill="#182b51"/>
    <path id="Path_659" data-name="Path 659"
          d="M22.556,106.867a1.1,1.1,0,0,0-1.739.23l-7.751,13.454a1.1,1.1,0,0,0,1.915,1.1l3.776-6.554,17.226,17.226-21.525,12.4-8.1-8.1,4.174-7.244a1.105,1.105,0,1,0-1.915-1.1L4.09,136.13l-1.84,1.841a7.681,7.681,0,0,0,10.863,10.863l1.162-1.162,1.906,1.906a6.043,6.043,0,0,0,8.75-8.333l19.055-10.978a1.105,1.105,0,0,0,.23-1.739Zm-18.744,40.4a5.471,5.471,0,0,1,0-7.738l1.162-1.162,7.738,7.738-1.162,1.162A5.477,5.477,0,0,1,3.812,147.271Zm19.353-4.677a3.834,3.834,0,1,1-5.422,5.421l-1.668-1.668,6.879-3.963Zm14.8-11.409-.023-.026L19.9,113.117l2.113-3.668L41.634,129.07Zm0,0"
          transform="translate(0 -94.771)" fill="#182b51"/>
    <path id="Path_660" data-name="Path 660"
          d="M246.864,12.593a1.1,1.1,0,0,0,1.359-.771L249.58,6.9l.942.942a1.1,1.1,0,0,0,1.834-.444l1.912-5.956a1.1,1.1,0,1,0-2.1-.675L250.805,5l-1-1a1.1,1.1,0,0,0-1.846.488l-1.862,6.752a1.105,1.105,0,0,0,.772,1.359Zm0,0"
          transform="translate(-218.865 0.001)" fill="#182b51"/>
    <path id="Path_661" data-name="Path 661"
          d="M402.236,159.439a1.105,1.105,0,0,0-1.5-.436l-7.859,4.317a1.105,1.105,0,0,0-.249,1.75l2.162,2.162-5.191,1.3a1.1,1.1,0,1,0,.536,2.144l7.084-1.771a1.1,1.1,0,0,0,.513-1.853l-2.5-2.5,6.568-3.608a1.105,1.105,0,0,0,.436-1.5Zm0,0"
          transform="translate(-345.805 -141.312)" fill="#182b51"/>
    <path id="Path_662" data-name="Path 662"
          d="M458.262,96.222a1.1,1.1,0,1,0-.324-.781A1.108,1.108,0,0,0,458.262,96.222Zm0,0"
          transform="translate(-407.338 -83.912)" fill="#182b51"/>
    <path id="Path_663" data-name="Path 663"
          d="M358.7,112.971a1.1,1.1,0,0,0-1.48-.5l-4.125,2.036a1.106,1.106,0,0,0-.292,1.772l1.561,1.561-5.2,2.56a1.105,1.105,0,0,0,.977,1.983l6.58-3.242a1.1,1.1,0,0,0,.293-1.773l-1.562-1.562,2.742-1.354a1.105,1.105,0,0,0,.5-1.48Zm0,0"
          transform="translate(-310.04 -99.94)" fill="#182b51"/>
    <path id="Path_664" data-name="Path 664"
          d="M310.929,16.091a1.1,1.1,0,0,0,1.516-.379l4.091-6.817,2.147,2.152a1.1,1.1,0,0,0,1.7-.166l6.125-9.158A1.1,1.1,0,1,0,324.672.5L319.3,8.533l-2.2-2.2a1.105,1.105,0,0,0-1.73.212l-4.821,8.032a1.1,1.1,0,0,0,.379,1.516Zm0,0"
          transform="translate(-276.095 -0.004)" fill="#182b51"/>
</svg>