<svg id="heart_1_" data-name="heart (1)" xmlns="http://www.w3.org/2000/svg" width="68.34"
     height="50.021" viewBox="0 0 68.34 50.021">
    <g id="Group_697" data-name="Group 697" transform="translate(0 0)">
        <path id="Path_657" data-name="Path 657"
              d="M67.171,80.371H61.39c2.4-5.457,2.144-9.874,1.234-12.863A15.463,15.463,0,0,0,48.007,56.4a18.275,18.275,0,0,0-6.3,1.169,32.683,32.683,0,0,0-7.276,3.638,31.189,31.189,0,0,0-7.276-3.638,18.554,18.554,0,0,0-6.3-1.169A15.463,15.463,0,0,0,6.236,67.509C5.327,70.692,5,75.5,8.055,81.54H1.039a1.039,1.039,0,1,0,0,2.079H9.29a13.713,13.713,0,0,0,1.169,1.754c6.756,9.744,21.438,20.333,24.1,20.983v.065a.2.2,0,0,0,.13-.065h.195v-.065c2.274-1.1,16.371-10.2,23.776-20.983a23.9,23.9,0,0,0,1.819-2.923H67.3a1.026,1.026,0,0,0,1.039-1.039A1.091,1.091,0,0,0,67.171,80.371ZM56.777,84.2C49.891,94.273,37.223,102.393,34.5,104.147,31.7,102.393,19.1,94.208,12.148,84.2l-.39-.585h9.549a1.072,1.072,0,0,0,.974-.585l4.352-8.575,6.821,17.475a1.064,1.064,0,0,0,.974.65H34.5a1.035,1.035,0,0,0,.974-.78l5.977-20.463L44.629,81.67a1.059,1.059,0,0,0,.845.715,1.125,1.125,0,0,0,1.039-.455l2.534-3.7,2.144,3.638a1.037,1.037,0,0,0,.909.52h5.847C57.557,83.035,57.167,83.619,56.777,84.2Zm2.339-3.833H52.749l-2.663-4.547a1.037,1.037,0,0,0-.909-.52.983.983,0,0,0-.909.455l-2.209,3.248L42.485,67.379a1.205,1.205,0,0,0-1.039-.78,1.112,1.112,0,0,0-1.039.78L34.365,88.232,27.8,71.471a.977.977,0,0,0-.909-.65,1.007,1.007,0,0,0-.974.585L20.788,81.475H10.459c-2.6-4.742-3.313-9.29-2.144-13.382a13.272,13.272,0,0,1,12.6-9.549A17.281,17.281,0,0,1,26.5,59.583a31.581,31.581,0,0,1,7.341,3.768.988.988,0,0,0,1.3,0,28.322,28.322,0,0,1,7.341-3.768,15.7,15.7,0,0,1,5.587-1.039,13.336,13.336,0,0,1,12.6,9.549C61.779,71.861,61.195,76.019,59.116,80.371Z"
              transform="translate(0 -56.4)" fill="#182b51"/>
    </g>
</svg>